<svg width="663" height="817" viewBox="0 0 663 817" fill="none" xmlns="http://www.w3.org/2000/svg">
<g clip-path="url(#clip0_15_422)">
<path d="M206.702 85.3821C206.282 74.1651 207.099 62.2611 206.99 50.8761C206.905 42.0621 206.572 32.1161 207.256 23.3821C207.395 21.6061 208.991 18.8371 210.219 17.6391C223.732 4.45805 264.829 1.14005 284.033 0.414055C309.283 -0.540945 359.126 0.914052 380.065 16.7111C385.443 20.7691 384.761 33.1931 384.713 39.7801C384.602 54.6661 384.652 69.485 384.925 84.471C391.164 87.537 394.406 88.923 399.596 93.622C409.138 76.759 436.017 79.5281 452.141 75.9441C478.423 70.1031 504.76 74.9661 514.257 103.378C520.259 121.333 512.934 136.412 509.329 154.071C506.074 168.169 502.952 183.18 499.009 197.117C513.045 199.287 528.029 208.528 536.08 220.212C548.125 237.692 551.592 257.522 547.842 278.274C545.486 291.308 543.511 304.102 540.735 317.023C539.074 324.749 535.523 334.267 534.844 341.848C544.182 363.727 549.112 385.262 542.339 407.936C536.539 427.357 534.33 421.079 541.467 441.439C547.271 457.997 544.265 487.257 535.518 502.874C543.895 524.733 547.301 541.057 542.056 564.656C541.155 568.711 537.024 578.643 537.316 581.282C538.285 590.055 543.353 597.754 544.671 607.404C545.405 612.783 544.563 624.667 545.805 628.065C543.253 632.379 541.345 636.002 539.101 640.442C538.173 642.312 537.424 644.707 535.86 645.786C534.293 650.631 530.028 663.19 530.591 668.07C527.516 671.737 516.663 680.84 512.794 673.932C513.634 671.88 515.126 665.101 515.728 662.628C497.251 667.535 499.729 670.801 491.853 684.736C491.296 687.849 489.223 703.979 488.527 705.745C454.994 724.523 418.977 741.705 385.53 760.265C340.049 785.504 321.645 795.469 268.795 780.544L145.487 745.005C142.686 746.694 142.654 746.543 139.368 746.589C124.654 746.529 116.661 750.008 103.19 740.386C94.183 733.954 87.453 722.603 87.577 711.47C87.692 701.06 89.345 695.533 87.47 684.389L87.352 683.717C89.5 680.296 89.109 666.496 90.195 661.159C92.138 651.604 94.657 645.016 98.198 636.171C96.792 632.848 94.556 628.357 93.464 625.076C84.706 598.768 87.806 571.659 99.099 547.112C92.85 537.173 89.43 524.968 88.174 513.319C87.739 509.281 88.673 505.78 87.205 502.061C85.937 508.376 80.011 521.503 76.637 527.276C82.955 492.612 74.092 467.497 51.993 441.294C47.6 436.087 40.713 429.358 37.63 423.984C34.181 417.971 34.727 407.15 34.412 400.274C34.132 394.181 32.857 387.021 32.723 380.948C32.488 370.361 34.538 357.772 36.994 347.449C39.279 337.842 45.525 328.969 46.575 319.489C46.911 313.609 46.359 307.616 45.434 301.738C42.003 279.95 47.692 254.613 65.675 240.461C69.089 237.774 73.863 236.562 77.191 233.086C85.024 224.902 88.085 213.484 96.603 205.732C103.635 199.267 110.753 200.699 118.658 196.883C124.06 194.274 127.753 185.139 132.861 182.361C140.957 177.957 150.016 176.74 158.649 172.818C169.576 167.855 179.981 160.332 190.329 155.148C184.211 161.959 155.733 188.305 155.306 193.645L156 193.878C158.538 193.233 162.812 190.732 165.466 189.41C161.166 194.184 155.403 198.134 150.762 203.25C146.401 208.056 145.875 212.972 142.951 216.874C138.141 223.294 127.7 230.467 121.482 235.84C106.751 248.57 93.892 261.228 91.913 281.257L92.558 282.519C94.708 281.96 98.933 272.879 101.337 270.208C111.435 258.99 122.982 249.279 134.145 239.132C151.809 222.811 169.649 206.681 187.663 190.746C191.596 187.296 203.406 177.948 206.364 174.855C206.422 170.48 206.446 166.105 206.433 161.73C202.124 159.37 192.245 154.362 190.697 149.314C189.095 144.091 189.164 100.317 191.496 96.594C194.373 91.999 201.732 87.4091 206.702 85.3821Z" fill="#222222"/>
<path d="M295.084 209.526C318.92 209.564 342.358 206.171 364.375 196.696C372.155 193.347 383.866 188.869 384.755 179.274C404.785 182.753 421.936 187.17 441.582 191.224C453.808 193.672 466.018 196.197 478.212 198.8C498.816 203.216 518.542 206.594 531.594 225.236C546.94 247.152 542.315 272.841 537.96 297.346C535.49 311.196 531.746 327.283 527.359 340.539C525.122 339.594 518.017 334.903 515.596 333.375C513.843 337.358 511.09 343.774 509.796 347.931C522.129 361.788 521.737 372.202 521.337 390.667C521.212 396.416 518.201 413.986 515.985 419.426C513.817 418.604 483.704 433.521 476.714 436.561C458.929 444.297 436.73 452 417.481 456.821C414.418 457.588 395.295 462.133 394.755 462.897C394.543 462.414 394.544 462.429 394.218 462.011C390.266 464.279 373.548 464.813 368.534 465.522C368.556 466.081 368.48 466.742 368.435 467.299L367.884 465.968C366.375 465.155 356.825 465.993 354.398 466.079C332.618 466.848 311.419 464.93 289.864 462.198L289.721 385.295C272.236 381.794 253.713 377.192 236.227 373.232C198.098 364.429 159.908 355.89 121.66 347.616C121.476 360.951 121.393 374.286 121.411 387.622L120.949 387.25C120.777 381.85 121.355 376.494 121.018 371.093C120.825 368.002 120.921 368.069 118.808 365.997C113.319 368.327 109.976 370.075 105.435 374.064C97.914 345.076 86.372 309.815 102.094 281.966C110.295 267.441 132.823 249.356 145.603 237.8C165.879 219.325 186.324 201.037 206.936 182.937C215.865 195.898 241.472 202.145 256.288 205.538C265.292 207.6 273.516 207.421 282.632 211.199C296.302 216.866 306.735 226.229 312.527 239.985L313.672 239.164C310.827 225.202 306.129 218.784 295.084 209.526Z" fill="#D6E5F6"/>
<path d="M114.525 314.337C116.742 314.35 125.018 316.962 127.711 317.67C139.132 320.568 150.518 323.602 161.866 326.771C183.611 333.032 205.475 338.87 227.446 344.282C283.276 358.418 314.087 365.012 371.428 351.279C396.542 345.372 420.876 336.539 443.931 324.962C462.828 315.329 481.086 304.722 499.481 294.201C504.85 291.129 520.204 277.144 525.267 280.275C526.113 282.262 525.959 284.296 526.021 286.5C524.475 300.169 520.532 320.613 515.596 333.375C513.843 337.358 511.09 343.774 509.796 347.931C522.129 361.788 521.737 372.202 521.337 390.667C521.212 396.416 518.201 413.986 515.985 419.426C513.817 418.604 483.704 433.521 476.714 436.561C458.929 444.297 436.73 452 417.481 456.821C414.418 457.588 395.295 462.133 394.755 462.897C394.543 462.414 394.544 462.429 394.218 462.011C390.266 464.279 373.548 464.813 368.534 465.522C368.556 466.081 368.48 466.742 368.435 467.299L367.884 465.968C366.375 465.155 356.825 465.993 354.398 466.079C332.618 466.848 311.419 464.93 289.864 462.198L289.721 385.295C272.236 381.794 253.713 377.192 236.227 373.232C198.098 364.429 159.908 355.89 121.66 347.616C121.476 360.951 121.393 374.286 121.411 387.622L120.949 387.25C120.777 381.85 121.355 376.494 121.018 371.093C120.825 368.002 120.921 368.069 118.808 365.997C113.676 353.344 108.37 336.496 109.423 322.876C110.377 318.558 110.874 317.886 113.867 314.584L114.525 314.337Z" fill="url(#paint0_linear_15_422)"/>
<path d="M114.525 314.337C116.742 314.35 125.018 316.962 127.711 317.67C139.132 320.568 150.518 323.602 161.866 326.771C183.611 333.032 205.475 338.87 227.446 344.282C283.276 358.418 314.087 365.012 371.428 351.279C396.542 345.372 420.876 336.539 443.931 324.962C462.828 315.329 481.086 304.722 499.481 294.201C504.85 291.129 520.204 277.144 525.267 280.275C526.113 282.262 525.959 284.296 526.021 286.5C522.7 289.684 519.562 293.021 516.258 296.209C502.371 309.608 485.184 318.49 468.34 327.519C449.678 337.522 430.332 347.78 410.379 354.972C414.274 360.391 416.92 365.886 415.702 372.852C414.987 377.172 412.541 381.014 408.93 383.49C400.932 389.06 388.687 386.919 383.468 378.575C380.76 374.246 380.539 368.849 381.256 363.929C379.387 363.422 374.253 365.164 372.067 365.664C343.003 372.311 311.162 375.786 281.65 370.351C263.787 367.061 245.959 362.148 228.376 358.022C205.451 352.767 182.645 347.004 159.975 340.737C143.69 336.377 123.192 332.478 109.423 322.876C110.377 318.558 110.874 317.886 113.867 314.584L114.525 314.337Z" fill="#1ADAFC"/>
<path d="M381.667 362.561C384.61 355.912 387.283 352.661 394.748 350.743C400.959 349.147 404.512 351.56 409.542 354.679C407.745 355.791 406.191 356.14 404.141 356.712L403.496 356.897L401.744 357.376C398.063 358.324 384.251 363.554 381.667 362.561Z" fill="#30E9FC"/>
<path d="M368.534 465.522C367.975 452.352 387.952 446.971 394.218 462.011C390.266 464.279 373.548 464.813 368.534 465.522Z" fill="#1ADAFC"/>
<path d="M349.899 420.276C355.444 418.703 361.219 421.902 362.828 427.437C364.436 432.972 361.274 438.767 355.749 440.41C352.404 441.405 348.784 440.67 346.091 438.45C343.084 435.97 341.701 432.026 342.5 428.211C343.3 424.397 346.15 421.34 349.899 420.276Z" fill="#30E9FC"/>
<path d="M466.645 361.415C469.448 360.703 472.313 362.335 473.129 365.109C473.946 367.883 472.422 370.807 469.681 371.727C467.813 372.353 465.753 371.909 464.31 370.569C462.866 369.228 462.271 367.206 462.758 365.298C463.245 363.389 464.736 361.9 466.645 361.415Z" fill="#1ADAFC"/>
<path d="M435.207 371.909C436.147 371.459 437.259 371.571 438.09 372.199C438.921 372.828 439.331 373.868 439.153 374.894C438.976 375.921 438.24 376.762 437.246 377.075C435.853 377.513 434.358 376.8 433.821 375.441C433.285 374.083 433.89 372.541 435.207 371.909Z" fill="#30E9FC"/>
<path d="M390.966 406.513C392.309 405.883 393.909 406.452 394.551 407.789C395.192 409.127 394.636 410.731 393.304 411.384C391.957 412.045 390.329 411.48 389.68 410.127C389.03 408.774 389.608 407.152 390.966 406.513Z" fill="#30E9FC"/>
<path d="M205.469 194.556C207.735 196.109 208.754 197.09 210.715 198.932C197.196 213.261 183.125 224.576 168.05 237.255C154.304 248.816 140.513 260.549 126.488 271.848C113.156 282.588 111.862 288.701 110.784 305.205C109.997 307.596 111.122 308.372 109.815 310.461C100.983 291.327 115.315 280.864 127.239 267.804C151.304 241.444 178.504 217.872 205.469 194.556Z" fill="#FEFEFE"/>
<path d="M109.815 310.461C111.122 308.372 109.997 307.596 110.784 305.205C111.047 307.661 110.347 309.14 112.038 310.961C113.733 312.787 116.093 312.251 114.525 314.337L113.867 314.584C112.254 314.114 110.915 312.769 110.207 311.268L109.815 310.461Z" fill="#F1F3FB"/>
<path d="M313.672 239.164C313.762 239.605 314.461 242.346 313.757 242.568C313.168 242.053 312.801 240.718 312.527 239.985L313.672 239.164Z" fill="#2E282B"/>
<path d="M218.892 209.587C220.898 209.784 223.784 210.228 225.723 210.887C242.707 216.629 259.97 221.396 277.108 226.657C286.451 229.525 291.66 234.02 296.431 242.481C302.417 252.977 303.89 265.452 300.514 277.055C296.235 292.111 285.425 301.58 270.285 304.684C258.033 307.195 248.093 302.866 236.608 299.396C222.753 295.838 209.219 291.267 195.427 287.702C179.185 283.504 163.042 278.689 146.807 274.563C150.848 269.798 155.935 265.755 160.517 261.483C178.349 244.858 197.008 229.234 214.48 212.206C215.754 210.965 217.216 210.147 218.892 209.587Z" fill="#FEFEFE"/>
<path d="M394.029 215.22C405.932 215.235 430.174 225.876 442.467 230.076C453.293 233.776 469.192 238.742 479.186 243.415C462.912 250.432 446.71 257.618 430.585 264.973C422.896 268.484 397.892 279.557 390.819 280.3C383.374 281.091 375.93 278.794 370.225 273.945C363.939 268.692 360.259 261.026 359.624 252.91C358.925 243.714 361.951 234.623 368.023 227.681C375.028 219.647 383.548 215.88 394.029 215.22Z" fill="#FEFEFE"/>
<path d="M128.322 277.783C129.365 276.73 130.902 274.883 132.197 274.561C131.378 276.362 130.497 277.161 129.174 278.67C126.598 283.079 122.555 294.86 129.408 297.584C137.534 300.813 146.312 303.422 154.633 306.354C173.848 313.066 193.014 319.919 212.129 326.912L211.796 327.797C197.443 323.737 130.617 307.088 123.387 301.247C121.361 299.61 120.195 296.052 120.111 293.524C119.901 287.187 124.274 282.129 128.322 277.783Z" fill="#222222"/>
<path d="M482.281 214.487C485.61 214.596 487.98 215.289 491.256 215.908L493.756 216.402C495.758 216.777 497.754 217.188 499.742 217.634C525.363 223.231 531.854 236.506 528.217 261.557C527.256 261.972 526.841 254.619 526.564 252.997C526.03 249.727 525.092 246.537 523.771 243.498C516.543 226.878 498.233 220.785 482.281 214.487Z" fill="#222222"/>
<path d="M490.384 255.63L490.989 257.029C471.749 270.509 452.116 283.42 432.117 295.744L431.995 294.476L458.16 274.533C471.09 264.651 475.08 261.04 490.384 255.63Z" fill="#222222"/>
<path d="M315.468 333.062C315.693 330.278 316.537 326.313 317.092 323.505L317.605 321.006C318.389 317.2 324.178 293.5 325.684 291.204C325.919 291.642 323.645 301.786 323.409 302.995L320.425 317.493C319.95 319.745 319.395 321.984 318.847 324.22L318.344 326.217C317.735 328.629 317.061 331.023 316.321 333.398L315.468 333.062Z" fill="#222222"/>
<path d="M417.953 197.821C420.108 198.433 422.28 198.741 424.497 199.054C431.927 200.104 438.8 202.646 445.955 204.673L445.965 205.812C442.882 205.114 439.627 204.558 436.497 204.094C430.155 203.154 424.076 201.057 418.021 199.018L417.953 197.821Z" fill="#222222"/>
<path d="M315.468 333.062L316.321 333.398C316.073 334.656 315.007 339.29 314.279 340.016C313.591 339.323 315.182 334.005 315.468 333.062Z" fill="#5C616A"/>
<path d="M212.129 326.912C212.923 327.18 218.414 328.651 218.224 329.58C217.648 329.742 212.544 328.104 211.796 327.797L212.129 326.912Z" fill="#5C616A"/>
<path d="M430.471 295.533L430.647 296.668C429.909 297.289 426.7 299.457 425.86 299.76L425.839 299.724L425.821 299.735C425.792 299.677 425.762 299.62 425.733 299.562C426.138 298.5 429.518 296.211 430.471 295.533Z" fill="#8A9397"/>
<path d="M490.384 255.63C492.329 254.9 494.173 254.112 496.149 253.389C494.452 254.579 492.661 255.819 490.989 257.029L490.384 255.63Z" fill="#2E282B"/>
<path d="M445.955 204.673C446.554 204.781 448.814 205.062 449.139 205.763C448.895 206.333 446.329 205.86 445.965 205.812L445.955 204.673Z" fill="#5C616A"/>
<path d="M418.021 199.018C417.351 198.811 415.075 198.324 414.757 197.69C415.068 197.068 417.456 197.729 417.953 197.821L418.021 199.018Z" fill="#5C616A"/>
<path d="M431.995 294.476L432.117 295.744C431.592 296.043 431.15 296.338 430.647 296.668L430.471 295.533C431.007 295.173 431.475 294.862 431.995 294.476Z" fill="#2E282B"/>
<path d="M394.755 462.897C395.295 462.133 414.418 457.588 417.481 456.821C436.73 452 458.929 444.297 476.714 436.561C483.704 433.521 513.817 418.604 515.985 419.426C512.556 429.557 510.273 433.764 505.079 443.144C507.317 442.049 511.652 439.735 513.811 438.859L514.223 439.456C514.144 442.331 517.129 449.501 517.964 452.564C523.768 473.872 519.449 495.714 511.189 515.723C510.772 516.732 510.88 517.187 511.508 517.867L512.238 517.757L513.024 518.089C528.021 545.585 519.063 577.525 504.782 603.363L509.975 600.094L510.366 600.684C511.656 603.92 515.166 606.784 516.629 610.49C523.483 627.858 520.527 645.162 515.728 662.628C497.251 667.535 499.729 670.801 491.853 684.736C491.296 687.849 489.223 703.979 488.527 705.745C454.994 724.523 418.977 741.705 385.53 760.265C340.049 785.504 321.645 795.469 268.795 780.544L145.487 745.005C120.341 737.76 105.143 729.867 97.217 703.06C91.75 684.571 95.873 656.269 105.08 639.725C109.816 647.923 116.708 655.286 124.277 660.946L124.997 662.118C126.427 660.364 129.923 658.42 130.203 657.67C128.521 654.456 124.882 650.521 122.584 647.122L122.255 646.627L121.31 643.886L121.515 641.293C125.762 641.374 133.616 643.483 138.001 644.386C151.472 647.161 164.86 650.656 178.253 653.812C215.441 662.428 252.676 670.842 289.956 679.054L289.864 462.198C311.419 464.93 332.618 466.848 354.398 466.079C356.825 465.993 366.375 465.155 367.884 465.968L368.435 467.299C368.48 466.742 368.556 466.081 368.534 465.522C373.548 464.813 390.266 464.279 394.218 462.011C394.544 462.429 394.543 462.414 394.755 462.897Z" fill="url(#paint1_linear_15_422)"/>
<path d="M105.08 639.725C109.816 647.923 116.708 655.286 124.277 660.946L124.997 662.118C114.839 680.853 124.299 711.976 142.961 722.895C150.88 727.528 169.135 730.695 178.61 733.324C197.251 738.57 215.932 743.673 234.651 748.634C256.169 754.488 291.242 765.689 313.499 760.976C327.875 757.932 339.197 736.976 349.704 727.849L348.869 731.494C348.641 732.354 348.417 733.213 348.202 734.075L350.073 734.632C350.256 747.36 350.268 759.101 366.522 750.759C367.701 748.722 478.662 692.115 491.853 684.736C491.296 687.849 489.223 703.979 488.527 705.745C454.994 724.523 418.977 741.705 385.53 760.265C340.049 785.504 321.645 795.469 268.795 780.544L145.487 745.005C120.341 737.76 105.143 729.867 97.217 703.06C91.75 684.571 95.873 656.269 105.08 639.725Z" fill="#22C3FD"/>
<path d="M348.202 734.075L350.073 734.632C350.256 747.36 350.268 759.101 366.522 750.759C367.037 750.562 367.554 750.372 368.074 750.189C368.879 751.293 368.983 751.544 370.044 752.364C369.945 752.455 369.846 752.546 369.747 752.637C341.538 771.253 345.133 752.291 348.202 734.075Z" fill="#222222"/>
<path d="M394.585 737.137C389.401 741.023 376.056 749.216 370.044 752.364C368.983 751.544 368.879 751.293 368.074 750.189C375.371 747.215 386.378 740.829 394.585 737.137Z" fill="#040F14"/>
<path d="M109.667 659.801C109.908 660.113 110.148 660.426 110.388 660.739C110.164 666.527 108.986 672.545 108.384 678.303C106.588 695.475 112.598 712.314 124.312 724.9C125.66 726.349 129.551 729.84 130.213 731.375L128.933 731.099C120.978 726.022 110.564 717.344 106.568 708.579C100.708 695.73 104.91 672.622 109.667 659.801Z" fill="#FEFEFE"/>
<path d="M394.218 462.011C394.544 462.429 394.543 462.414 394.755 462.897C397.616 483.789 368.817 484.969 368.435 467.299C368.48 466.742 368.556 466.081 368.534 465.522C373.548 464.813 390.266 464.279 394.218 462.011Z" fill="#22C3FD"/>
<path d="M349.704 727.849C349.867 727.446 350.29 726.039 350.799 725.813C350.863 725.852 350.928 725.891 350.992 725.93C351.152 727.5 350.268 733.17 350.073 734.632L348.202 734.075C348.417 733.213 348.641 732.354 348.869 731.494L349.704 727.849Z" fill="#0C0D2A"/>
<path d="M426.447 476.315C431.528 475.015 436.915 476.552 440.546 480.337C444.176 484.122 445.487 489.569 443.976 494.591C442.465 499.614 438.367 503.434 433.251 504.588C425.496 506.337 417.773 501.534 415.913 493.805C414.053 486.075 418.745 478.285 426.447 476.315Z" fill="#31A0FD"/>
<path d="M506.701 616.24L507.091 617.081C482.986 631.391 458.663 645.331 434.129 658.894C419.562 667.008 400.201 678.166 385.24 685.381L384.981 683.588C387.528 681.632 393.954 678.093 396.96 676.375L419.142 663.784C446.445 648.36 478.95 629.943 506.701 616.24Z" fill="#111322"/>
<path d="M384.889 564.233C390.533 562.916 396.179 566.415 397.51 572.056C398.842 577.697 395.355 583.352 389.717 584.696C384.061 586.045 378.383 582.545 377.048 576.885C375.712 571.225 379.226 565.556 384.889 564.233Z" fill="#31A0FD"/>
<path d="M262.966 700.23C271.868 702.359 280.804 704.684 289.89 705.779C301.369 707.163 312.728 706.402 324.222 705.77L324.521 707.206C297.296 713.309 287.027 710.513 261.262 701.123L262.966 700.23Z" fill="url(#paint2_linear_15_422)"/>
<path d="M146.032 665.536C169.381 672.247 193.924 679.116 216.93 686.723C215.086 687.575 215.188 687.453 213.136 687.706C207.71 685.814 198.106 683.705 192.091 681.972C176.266 677.412 160.087 672.952 144.798 666.737L146.032 665.536Z" fill="#222222"/>
<path d="M464.93 586.789C468.906 586.413 472.461 589.267 472.951 593.23C473.441 597.194 470.69 600.828 466.742 601.432C464.086 601.838 461.419 600.768 459.779 598.639C458.14 596.511 457.787 593.659 458.858 591.194C459.929 588.73 462.255 587.043 464.93 586.789Z" fill="#31A0FD"/>
<path d="M134.409 681.588C142.902 683.592 153.131 687.091 161.637 689.743L196.464 700.484L194.792 701.884C170.739 695.997 156.08 691.175 132.71 682.566L134.409 681.588Z" fill="#222222"/>
<path d="M401.566 515.334C403.73 514.644 406.097 515.172 407.762 516.716C409.428 518.26 410.132 520.581 409.607 522.79C409.082 525 407.407 526.755 405.225 527.384C401.917 528.338 398.455 526.458 397.455 523.163C396.454 519.868 398.286 516.381 401.566 515.334Z" fill="#31A0FD"/>
<path d="M323.39 655.766C326.534 654.572 330.056 656.111 331.317 659.229C332.578 662.347 331.116 665.901 328.026 667.229C325.967 668.114 323.59 667.815 321.814 666.449C320.037 665.083 319.139 662.862 319.466 660.645C319.793 658.428 321.294 656.561 323.39 655.766Z" fill="#31A0FD"/>
<path d="M362.654 601.945C370.756 602.389 373.156 609.472 366.565 613.985C364.326 614.05 361.9 614.555 360.399 612.616C357.594 608.992 358.524 605.002 361.965 602.471L362.654 601.945Z" fill="#31A0FD"/>
<path d="M360.625 501.748C366.889 503.119 367.789 509.225 361.752 512.365L361.251 512.242C355.083 510.8 354.921 505.351 359.802 502.283L360.625 501.748Z" fill="#22C3FD"/>
<path d="M328.988 567.262C331.448 567.112 333.577 568.955 333.781 571.411C333.985 573.867 332.19 576.037 329.738 576.294C328.104 576.466 326.505 575.741 325.559 574.397C324.612 573.054 324.467 571.304 325.179 569.823C325.891 568.342 327.348 567.362 328.988 567.262Z" fill="#31A0FD"/>
<path d="M459.007 526.192C461.458 525.875 463.708 527.59 464.053 530.037C464.397 532.484 462.709 534.753 460.265 535.126C458.66 535.37 457.047 534.733 456.042 533.458C455.037 532.182 454.795 530.465 455.409 528.962C456.022 527.458 457.397 526.4 459.007 526.192Z" fill="#31A0FD"/>
<path d="M414.312 604.715C415.398 604.168 416.695 604.249 417.705 604.926C418.715 605.603 419.281 606.772 419.187 607.985C419.093 609.197 418.353 610.264 417.251 610.778C415.582 611.555 413.599 610.849 412.797 609.193C411.994 607.537 412.669 605.543 414.312 604.715Z" fill="#31A0FD"/>
<path d="M384.981 683.588L385.24 685.381C378.23 688.893 373.466 692.257 365.752 694.92L367.892 693.6C371.956 691.043 380.725 685.884 384.981 683.588Z" fill="#0C0D2A"/>
<path d="M132.71 682.566C131.012 681.841 121.852 678.948 121.376 678.336L121.506 678.02C123.037 677.52 132.346 680.873 134.409 681.588L132.71 682.566Z" fill="#0C0D2A"/>
<path d="M196.464 700.484C199.225 701.921 203.726 702.892 206.44 704.366C211.105 706.9 194.904 701.911 194.792 701.884L196.464 700.484Z" fill="#0C0D2A"/>
<path d="M216.93 686.723C219.798 687.544 222.607 688.526 225.444 689.422L224.119 690.259C221.901 689.735 219.699 689.151 217.492 688.625L216.509 688.398C215.266 688.105 214.388 687.925 213.136 687.706C215.188 687.453 215.086 687.575 216.93 686.723Z" fill="#0C0D2A"/>
<path d="M135.003 661.775C137.812 662.994 143.051 664.621 146.032 665.536L144.798 666.737C142.734 665.926 136.057 663.104 134.359 662.659L135.003 661.775Z" fill="#0C0D2A"/>
<path d="M256.31 698.185C258.539 698.834 260.758 699.515 262.966 700.23L261.262 701.123C259.77 700.344 257.274 699.513 255.673 699.064L256.31 698.185Z" fill="#0C0D2A"/>
<path d="M134.359 662.659C133.565 662.37 128.576 660.066 128.962 659.21C129.954 659.055 133.591 661.234 135.003 661.775L134.359 662.659Z" fill="#10239F"/>
<path d="M324.222 705.77C325.505 705.522 326.597 705.429 327.894 705.291L327.081 706.407C326.194 706.668 325.396 706.905 324.521 707.206L324.222 705.77Z" fill="#050D51"/>
<path d="M225.444 689.422C226.147 689.655 227.656 690.052 228.046 690.699C227.691 691.102 224.646 690.351 224.119 690.259L225.444 689.422Z" fill="#050D51"/>
<path d="M327.894 705.291C331.878 704.311 330.159 705.661 327.081 706.407L327.894 705.291Z" fill="#10239F"/>
<path d="M508.089 615.223C510.873 614.212 511.038 614.811 508.576 616.615L508.089 615.223Z" fill="#10239F"/>
<path d="M506.701 616.24C507.168 615.907 507.631 615.568 508.089 615.223L508.576 616.615C508.082 616.774 507.587 616.929 507.091 617.081L506.701 616.24Z" fill="#050D51"/>
<path d="M255.673 699.064C255.3 698.859 254.8 698.692 254.595 698.308C254.647 697.724 256.084 698.143 256.31 698.185L255.673 699.064Z" fill="#10239F"/>
<path d="M76.637 527.276C82.955 492.612 74.092 467.497 51.993 441.294C47.6 436.087 40.713 429.358 37.63 423.984C34.181 417.971 34.727 407.15 34.412 400.274C34.132 394.181 32.857 387.021 32.723 380.948C32.488 370.361 34.538 357.772 36.994 347.449C39.279 337.842 45.525 328.969 46.575 319.489C46.911 313.609 46.359 307.616 45.434 301.738C42.003 279.95 47.692 254.613 65.675 240.461C69.089 237.774 73.863 236.562 77.191 233.086C85.024 224.902 88.085 213.484 96.603 205.732C103.635 199.267 110.753 200.699 118.658 196.883C124.06 194.274 127.753 185.139 132.861 182.361C140.957 177.957 150.016 176.74 158.649 172.818C169.576 167.855 179.981 160.332 190.329 155.148C184.211 161.959 155.733 188.305 155.306 193.645L156 193.878C158.538 193.233 162.812 190.732 165.466 189.41C161.166 194.184 155.403 198.134 150.762 203.25C146.401 208.056 145.875 212.972 142.951 216.874C138.141 223.294 127.7 230.467 121.482 235.84C106.751 248.57 93.892 261.228 91.913 281.257C91.85 288.142 88.815 295.237 87.654 302.024C86.93 306.258 87.813 315.461 86.226 318.562C79.346 332.003 68.885 343.797 68.931 359.859C68.95 366.553 71.031 373.646 71.282 380.372C71.296 394.504 66.954 406.197 70.314 420.561C71.604 426.265 73.781 431.732 76.765 436.762C86.974 453.828 94.544 457.69 90.449 479.703C89.063 487.154 89.631 493.95 87.205 502.061C85.937 508.376 80.011 521.503 76.637 527.276Z" fill="#297AF6"/>
<path d="M150.394 187.037L150.638 187.303C150.375 189.969 128.699 216.495 125.392 219.818C112.878 232.394 100.711 241.236 90.814 256.817C82.767 269.488 80.781 280.015 80.35 294.91C80.223 299.299 79.693 307.764 78.171 311.752C73.228 324.7 65.079 331.938 60.742 346.148C54.912 365.255 62.321 372.408 63.768 390.079C64.53 399.384 58.06 412.762 61.911 423.438C66.394 435.87 75.216 443.371 81.526 454.669C86.522 463.614 86.813 479.905 83.907 489.248L83.354 489.422C81.218 486.879 80.173 478.477 78.817 474.305L78.597 473.648C70.66 451.447 52.962 439.434 43.071 419.206C40.496 413.942 43.713 404.358 43.226 398.206C42.557 389.754 38.786 381.878 38.693 373.423C39.908 356.343 54.596 342 56.078 323.887C57.01 312.492 52.145 304.281 51.206 293.08C49.447 272.093 57.869 263.328 73.154 250.862C77.081 247.659 81.105 243.814 84.337 239.869C90.232 232.674 93.265 221.259 98.753 214.47C113.675 215.432 116.094 206.075 127.151 199.412C134.986 194.69 142.44 192.93 150.394 187.037Z" fill="#1ADAFC"/>
<path d="M118.729 213.557L119.212 214.606C113.379 220.988 107.373 226.658 101.506 232.921C97.155 237.565 92.739 243.996 88.71 249.109C81.157 258.693 73.519 265.838 70.861 278.151C68.489 289.136 71.094 300.843 67.892 310.922C65.028 310.615 64.06 310.719 63.568 313.885C62.927 306.296 60.289 300.331 60.036 293.148C59.199 269.416 77.723 263.763 88.885 245.814C93.806 237.901 95.926 228.32 101.347 222.4C110.41 218.984 110.469 220.967 118.729 213.557Z" fill="#C9F9FD"/>
<path d="M52.169 356.772C52.267 356.338 52.366 355.913 52.482 355.482L52.991 355.247L52.622 355.139L53.015 355.067L53.052 354.974L53.097 354.955C53.593 355.946 52.876 359.042 52.645 360.134C50.268 374.726 56.042 380.827 57.364 393.694C57.969 399.582 53.731 412.045 55.713 420.395C57.565 428.201 60.305 432.448 64.077 439.363L62.83 439.86C58.106 432.082 51.425 422.134 48.646 413.707C46.782 408.194 49.874 400.315 49.283 395.072C47.568 379.86 43.742 371.603 52.169 356.772Z" fill="#C9F9FD"/>
<path d="M52.169 356.772C52.267 356.338 52.366 355.913 52.482 355.482L52.991 355.247L52.622 355.139L53.015 355.067L53.052 354.974L53.097 354.955C53.593 355.946 52.876 359.042 52.645 360.134L52.169 356.772Z" fill="#C9F9FD"/>
<path d="M63.568 313.885C64.06 310.719 65.028 310.615 67.892 310.922C65.715 318.213 62.976 324.178 59.685 331.01L60.542 327.171C61.745 321.931 62.995 320.339 63.568 313.885Z" fill="#FEFEFE"/>
<path d="M64.077 439.363C64.787 440.428 68.667 446.995 69.267 447.387C69.49 447.273 69.32 447.374 69.625 447.091C69.796 446.933 70.1 446.681 70.347 446.694C70.539 446.705 70.666 446.797 70.787 446.941C71.258 447.504 71.436 449.196 72.16 449.453C72.324 449.511 72.693 449.372 72.833 449.345C73.671 449.181 74.539 449.232 75.257 449.75C75.486 449.916 75.729 450.206 75.763 450.492C75.804 450.833 75.761 451.179 75.753 451.522C75.751 451.597 75.76 451.674 75.75 451.748C75.723 451.964 75.48 452.09 75.356 452.268C75.304 452.343 75.281 452.434 75.235 452.513C75.122 452.707 75.14 452.677 74.999 452.778C74.692 452.785 71.669 450.885 71.299 450.72C68.023 449.262 64.479 443.505 62.83 439.86L64.077 439.363Z" fill="#30E9FC"/>
<path d="M118.729 213.557C123.146 206.173 123.091 210.655 119.212 214.606L118.729 213.557Z" fill="#30E9FC"/>
<path d="M118.808 365.997C120.921 368.069 120.825 368.002 121.018 371.093C121.355 376.494 120.777 381.85 120.949 387.25L121.411 387.622L121.503 439.94C121.494 447.517 121.828 459.15 121.267 466.388C121.358 470.062 121.524 473.654 121.24 477.319C115.964 472.577 111.092 469.431 106.445 463.797C100.699 454.031 96.859 440.521 95.715 429.282C94.269 415.858 95.669 402.279 99.822 389.432C100.67 386.729 102.069 382.286 103.867 380.091C105.289 379.387 105.379 379.326 106.594 378.338L105.435 374.064C109.976 370.075 113.319 368.327 118.808 365.997Z" fill="#1ADAFC"/>
<path d="M113.236 400.73C115.283 397.325 117.964 388.59 120.949 387.25L121.411 387.622L121.503 439.94C121.494 447.517 121.828 459.15 121.267 466.388L120.835 465.882C110.257 445.953 106.647 422.53 113.236 400.73Z" fill="#22C3FD"/>
<path d="M120.835 465.882C112.784 465.014 107.258 446.791 106.727 439.809C106.003 430.285 107.326 408.094 113.236 400.73C106.647 422.53 110.257 445.953 120.835 465.882Z" fill="url(#paint3_linear_15_422)"/>
<path d="M103.867 380.091C105.289 379.387 105.379 379.326 106.594 378.338C106.976 379.886 107.317 381.444 107.689 382.995L109.504 390.882C105.979 385.339 106.48 385.009 103.867 380.091Z" fill="#040F14"/>
<path d="M105.373 550.727C111.341 557.009 114.634 559.799 121.408 564.885C121.356 589.548 120.781 616.816 121.515 641.293L121.31 643.886L122.255 646.627L122.584 647.122C124.882 650.521 128.521 654.456 130.203 657.67C129.923 658.42 126.427 660.364 124.997 662.118L124.277 660.946C122.806 658.239 118.163 653.407 116.017 650.881C93.347 624.182 90.137 581.387 105.373 550.727Z" fill="url(#paint4_linear_15_422)"/>
<path d="M110.215 571.853C111.393 573.64 110.982 573.963 111.163 576.17C108.634 595.677 111.283 613.686 117.063 632.432C118.131 635.897 119.565 640.848 121.31 643.886L122.255 646.627C119.299 644.479 116.595 640.808 114.703 637.681C103.119 618.522 105.159 592.733 110.215 571.853Z" fill="#FEFEFE"/>
<path d="M112.038 563.207C111.968 567.027 111.769 572.386 111.163 576.17C110.982 573.963 111.393 573.64 110.215 571.853C110.386 569.167 111.33 565.816 112.038 563.207Z" fill="#C9F9FD"/>
<path d="M103.973 465.421C105.309 464.776 105.297 464.805 106.445 463.797C111.092 469.431 115.964 472.577 121.24 477.319L121.157 478.205C121.668 480.129 121.443 498.961 121.437 502.038L121.35 563.612C96.357 541.791 92.444 515.415 97.788 483.406C98.307 480.297 101.431 467.109 103.973 465.421Z" fill="url(#paint5_linear_15_422)"/>
<path d="M103.973 465.421C105.309 464.776 105.297 464.805 106.445 463.797C111.092 469.431 115.964 472.577 121.24 477.319L121.157 478.205C114.589 474.883 109.511 469.536 103.973 465.421Z" fill="#111322"/>
<path d="M111.66 479.322C112.384 481.576 110.189 498.291 110.623 503.414C111.084 511.937 112.053 520.255 113.671 528.637C114.314 531.965 119.133 546.249 117.801 548.202L116.733 547.272C112.992 541.705 112.107 539.78 109.591 533.645C103.981 519.968 105.476 492.344 111.66 479.322Z" fill="#FEFEFE"/>
<path d="M515.596 333.375C518.017 334.903 525.122 339.594 527.359 340.539C526.002 346.151 523.446 355.549 522.629 360.95C525.236 356.184 527.358 352.054 529.049 346.858C538.765 364.364 540.098 389.655 534.65 408.702C532.366 416.685 529.346 422.348 524.823 429.196C524.761 430.324 524.764 430.853 524.829 431.956C522.469 434.28 520.416 435.777 517.738 437.702L516.492 437.035C515.61 437.667 514.741 438.299 513.811 438.859C511.652 439.735 507.317 442.049 505.079 443.144C510.273 433.764 512.556 429.557 515.985 419.426C518.201 413.986 521.212 396.416 521.337 390.667C521.737 372.202 522.129 361.788 509.796 347.931C511.09 343.774 513.843 337.358 515.596 333.375Z" fill="#1ADAFC"/>
<path d="M524.823 429.196C524.761 430.324 524.764 430.853 524.829 431.956C522.469 434.28 520.416 435.777 517.738 437.702L516.492 437.035C520.296 434.177 521.674 432.697 524.823 429.196Z" fill="#040F14"/>
<path d="M529.269 584.769C538.364 604.574 540.357 617.203 537.219 638.954L539.101 640.442C538.173 642.312 537.424 644.707 535.86 645.786C534.293 650.631 530.028 663.19 530.591 668.07C527.516 671.737 516.663 680.84 512.794 673.932C513.634 671.88 515.126 665.101 515.728 662.628C520.527 645.162 523.483 627.858 516.629 610.49C515.166 606.784 511.656 603.92 510.366 600.684C518.584 595.952 522.931 592.015 529.269 584.769Z" fill="#22C3FD"/>
<path d="M537.219 638.954L539.101 640.442C538.173 642.312 537.424 644.707 535.86 645.786C536.312 643.508 536.76 641.23 537.219 638.954Z" fill="#0C0D2A"/>
<path d="M523.044 511.236L528.567 505.761C541.458 530.51 541.857 565.209 523.448 587.507C519.703 592.042 514.66 596.539 509.975 600.094L504.782 603.363C519.063 577.525 528.021 545.585 513.024 518.089C516.392 516.417 520.205 513.662 523.044 511.236Z" fill="#1ADAFC"/>
<path d="M524.829 431.956L528.69 428.081C540.122 453.787 542.116 486.938 522.195 509.114L523.044 511.236C520.205 513.662 516.392 516.417 513.024 518.089L512.238 517.757L511.508 517.867C510.88 517.187 510.772 516.732 511.189 515.723C519.449 495.714 523.768 473.872 517.964 452.564C517.129 449.501 514.144 442.331 514.223 439.456L513.811 438.859C514.741 438.299 515.61 437.667 516.492 437.035L517.738 437.702C520.416 435.777 522.469 434.28 524.829 431.956Z" fill="#1ADAFC"/>
<path d="M522.195 509.114L523.044 511.236C520.205 513.662 516.392 516.417 513.024 518.089L512.238 517.757C516.326 514.84 518.709 512.628 522.195 509.114Z" fill="#111322"/>
<path d="M513.811 438.859C514.741 438.299 515.61 437.667 516.492 437.035L517.738 437.702C516.307 438.557 515.79 438.885 514.223 439.456L513.811 438.859Z" fill="#0C0D2A"/>
<path d="M125.719 353.089C142.936 356.067 166.2 362.069 183.717 366.054L285.484 388.908L285.564 498.572C285.561 514.968 286.301 538.858 285.359 554.615C232.572 541.829 178.361 531.266 125.662 518.155L125.597 405.154C125.599 389.615 124.961 368.169 125.719 353.089Z" fill="#F7C244"/>
<path d="M226.686 395.558C237.11 406.884 240.605 418.867 239.866 434.236C239.741 436.494 239.581 438.75 239.386 441.004C254.109 448.44 263.611 463.787 264.046 480.294C264.798 484.092 264.539 488.777 263.635 492.56L262.928 492.536C263.058 489.91 263.044 487.317 263.063 484.69C261.728 474.706 256.056 465.335 247.072 460.458C239.912 456.57 228.531 454.771 221.908 460.366C220.166 461.837 217.099 465.653 215.295 466.177C209.912 463.673 213.051 459.458 212.533 455.472C211.933 450.85 205.564 450.729 205.027 445.478C205.231 444.95 205.436 444.422 205.641 443.895C208.915 443.722 213.52 444.264 216.435 442.589C229.226 435.237 233.267 417.636 228.242 404.369C227.386 402.11 226.461 400.315 225.307 398.214C225.765 396.689 225.71 396.79 226.686 395.558Z" fill="#222222"/>
<path d="M264.046 480.294C264.798 484.092 264.539 488.777 263.635 492.56L262.928 492.536C263.058 489.91 263.044 487.317 263.063 484.69C263.241 485.274 263.494 486.602 263.782 487.054C263.717 486.93 263.652 486.806 263.587 486.681L264.009 486.382C264.018 484.351 263.967 482.324 264.046 480.294Z" fill="#75541F"/>
<path d="M163.148 503.539C181.315 508.091 190.932 498.636 195.348 481.961C196.86 476.249 195.045 470.863 195.931 465.605C198.174 465.703 200.946 470.499 204.062 470.18C206.95 469.884 208.147 467.806 210.673 467.902C212.71 471.492 210.391 479.054 211.17 483.376C215.182 505.644 232.986 521.524 254.942 507.398C238.619 523.814 219.06 520.064 203.801 504.615L202.829 503.626C196.309 509.613 189.642 512.6 180.562 512.139C173.806 511.801 167.289 509.531 161.786 505.598C162.302 504.858 162.676 504.306 163.148 503.539Z" fill="#222222"/>
<path d="M170.121 433.115C168.24 413.583 173.05 390.713 195.21 385.784L195.563 386.61C179.196 392.631 176.426 412.252 182.141 426.837C185.894 436.414 190.444 441.565 201.05 442.856L200.502 448.928C190.625 452.184 196.269 457.553 193.013 461.977L192.027 462.111C190.591 460.68 185.221 454.671 184.118 454.012C169.042 445.004 149.867 449.704 144.132 467.549L142.412 466.978C144.207 450.326 153.267 436.827 170.121 433.115Z" fill="#222222"/>
<path d="M199.269 422.654C199.927 422.595 200.588 422.565 201.25 422.566C209.103 422.528 217.292 426.976 222.746 432.499C220.101 434.818 219.111 435.587 216.132 437.436C214.204 436.387 212.143 435.267 210.17 434.31C202.097 431.09 198.738 431.488 191.553 435.243C188.769 432.07 188.226 431.272 186.171 427.66L186.73 427.269C191.216 424.057 194.011 423.423 199.269 422.654Z" fill="#222222"/>
<path d="M232.792 460.633C235.68 460.654 234.778 462.086 234.597 464.501C233.722 476.177 227.393 485.44 217.293 491.078C215.51 488.372 215.212 484.917 214.676 481.767C223.442 475.663 224.453 471.881 226.788 461.835C229.062 461.285 230.496 460.997 232.792 460.633Z" fill="#222222"/>
<path d="M173.445 454.143C176.214 454.819 178.87 455.789 181.29 457.311L182.114 457.809C183.923 468.088 184.461 472.667 192.715 480.348C191.993 482.53 191.411 484.199 190.526 486.329C190.243 486.805 189.522 488.654 188.631 487.881C181.634 481.812 176.71 473.247 174.607 464.244C173.794 460.764 173.546 457.683 173.445 454.143Z" fill="#222222"/>
<path d="M225.307 398.214C220.578 392.4 219.247 391.33 213.274 386.726C220.123 390.151 220.91 390.76 226.686 395.558C225.71 396.79 225.765 396.689 225.307 398.214Z" fill="#3A220A"/>
<path d="M142.412 466.978L144.132 467.549C143.651 469.384 143.548 469.885 143.354 471.75C143.366 473.754 143.1 475.771 142.932 477.782C142.974 478.243 143.194 479.736 142.738 480.061C141.519 479.032 142.053 469.75 142.416 467.813L142.412 466.978Z" fill="#75541F"/>
<path d="M142.412 466.978L144.132 467.549C143.651 469.384 143.548 469.885 143.354 471.75L142.426 471.546C142.469 470.214 142.472 469.143 142.416 467.813L142.412 466.978Z" fill="#231715"/>
<path d="M142.426 471.546L143.354 471.75C143.366 473.754 143.1 475.771 142.932 477.782C142.403 475.123 142.289 474.282 142.426 471.546Z" fill="#3A220A"/>
<path d="M161.786 505.598C160.074 504.384 158.446 503.053 156.916 501.616C156.461 501.184 153.684 498.775 154.345 498.206C154.525 498.292 154.706 498.378 154.886 498.463C154.971 498.521 155.055 498.579 155.14 498.636L154.908 498.437C155.597 498.931 156.422 499.72 157.081 500.303C157.433 500.439 157.373 500.422 157.639 500.727L159.342 501.694C160.56 502.379 161.875 502.96 163.148 503.539C162.676 504.306 162.302 504.858 161.786 505.598Z" fill="#3A220A"/>
<path d="M262.928 492.536L263.635 492.56C263.461 496.028 262.45 495.371 262.806 493.353L262.928 492.536Z" fill="#BB902E"/>
<path d="M197.398 385.282L197.802 386.085C197.059 386.274 196.313 386.448 195.563 386.61L195.21 385.784C196.074 385.543 196.51 385.425 197.398 385.282Z" fill="#75541F"/>
<path d="M197.398 385.282C197.759 385.151 199.037 384.681 199.223 385.296C199.1 385.819 198.188 385.968 197.802 386.085L197.398 385.282Z" fill="#BB902E"/>
<path d="M125.547 522.801C130.255 523.54 138.467 525.7 143.388 526.808L180.663 535.238L285.581 558.969C285.713 596.691 286.324 636.1 285.786 673.745C263.211 668.708 240.634 663.554 218.048 658.541C187.935 651.858 156.099 643.379 125.845 637.752L125.547 522.801Z" fill="#F7C244"/>
<path d="M202.435 550.647C208.057 550.86 216.385 554.37 216.513 561.068C216.635 567.403 214.384 575.578 213.517 582.058C212.373 590.618 210.592 599.434 209.161 607.972C208.651 610.761 207.213 611.63 204.998 613.006C202.194 613.05 198.925 612.413 198.12 609.258C196.925 604.577 196.433 599.697 195.645 594.92C193.73 583.894 191.993 572.839 190.433 561.757C193.22 554.818 194.899 552.042 202.435 550.647Z" fill="#222222"/>
<path d="M200.458 620.907C206.19 619.441 212.025 622.893 213.5 628.623C214.974 634.352 211.529 640.193 205.802 641.675C200.064 643.16 194.209 639.707 192.732 633.967C191.255 628.226 194.716 622.376 200.458 620.907Z" fill="#222222"/>
<path d="M378.429 27.4419C379.044 30.3969 378.752 45.3299 378.749 48.9319C378.735 64.2469 378.432 79.3759 378.947 94.7099C371.519 103.754 351.55 107.881 340.699 109.991C310.371 115.89 241.288 115.626 215.491 97.3729C214.473 96.3759 213.37 95.1259 213.387 93.6239C213.637 72.0639 212.923 49.4159 213.905 27.9559C242.225 50.0559 350.438 49.2429 378.429 27.4419Z" fill="#297AF6"/>
<path d="M316.146 46.407C317.749 46.564 317.714 46.548 319.206 47.144C320.512 49.81 320.091 102.073 319.77 108.829C318.252 108.675 318.161 108.778 316.849 108.071C315.383 104.882 315.992 53.942 316.146 46.407Z" fill="#231715"/>
<path d="M221.781 37.0371C223.8 37.4871 223.838 37.1311 224.894 38.3731C225.091 41.0141 225.313 49.3971 225.105 51.9081C224.504 59.1541 226.426 95.3311 224.042 98.8231C220.672 97.8531 220.91 91.5771 221.199 88.9951C222.021 81.6531 219.575 41.1571 221.781 37.0371Z" fill="#222222"/>
<path d="M235.949 42.2329C238.147 42.2809 238.367 42.0899 239.685 43.2279C240.201 46.9169 239.892 58.3329 239.895 62.6889C239.972 75.8679 239.941 89.0469 239.802 102.226C237.732 102.512 237.763 102.877 236.348 102.066C235.724 99.5369 235.956 86.6209 235.954 83.3389L235.949 42.2329Z" fill="#231715"/>
<path d="M254.696 45.861C256.135 45.879 256.914 45.727 258.092 46.532C258.591 48.636 258.449 61.846 258.415 65.004C258.268 78.827 258.618 93.04 258.109 106.824C256.618 106.993 256.152 107.219 254.819 106.586C254.282 104.622 254.437 90.202 254.48 87.118C254.669 73.53 254.224 59.394 254.696 45.861Z" fill="#231715"/>
<path d="M334.579 45.7771C335.588 45.9151 336.417 46.0711 337.419 46.2541C337.642 46.5271 337.865 46.8011 338.088 47.0741C338.194 63.0281 339.008 91.0851 338.245 105.835C336.235 105.844 336.269 106.16 334.796 105.297C334.294 103.155 334.492 90.8351 334.494 87.8161L334.579 45.7771Z" fill="#231715"/>
<path d="M277.332 46.6609C278.428 47.0779 278.419 47.1219 279.362 47.8439C279.479 48.3799 279.669 49.1689 279.666 49.7199C279.572 68.8329 279.828 87.9779 279.45 107.082C279.433 107.934 278.888 108.601 278.363 109.209C277.05 108.668 276.875 108.763 276.071 107.654C275.319 97.1109 276.291 83.5879 275.992 72.7129C275.788 65.3089 276.115 56.5129 276.24 49.0369C276.256 48.0969 276.775 47.3719 277.332 46.6609Z" fill="#222222"/>
<path d="M297.756 47.6279C299.312 47.6899 299.894 47.5769 301.225 48.4009C301.748 52.3409 301.471 63.9699 301.457 68.5149L301.338 108.299C300.361 108.142 299.587 107.974 298.618 107.77C297.125 105.621 297.712 54.6769 297.756 47.6279Z" fill="#222222"/>
<path d="M368.673 36.2529C370.191 36.7169 370.199 36.6199 371.38 37.6339C372.058 40.0819 372.181 92.2239 371.427 96.8429C369.872 96.4309 369.612 96.5089 368.453 95.3799C367.688 91.3039 367.831 38.6039 368.673 36.2529Z" fill="#222222"/>
<path d="M352.64 42.1299C354.63 42.4359 354.553 42.0979 355.804 43.2099C356.402 49.1469 356.07 62.5039 356.004 68.8659C355.894 79.3329 356.321 92.0599 355.659 102.356C354.165 102.019 353.885 102.1 352.747 101.069C352.295 99.0539 352.387 84.5309 352.462 81.5129C352.775 68.8969 351.939 54.5639 352.64 42.1299Z" fill="#222222"/>
<path d="M394.942 112.114C395.666 114.985 395.381 138.3 395.347 143.052C383.641 163.889 326.452 170.921 303.913 171.566C276 172.365 219.888 168.226 199.297 148.595C198.587 147.629 197.259 145.696 197.124 144.578C195.951 134.873 196.518 122.461 196.588 112.668C239.621 141.479 352.646 141.375 394.942 112.114Z" fill="#297AF6"/>
<path d="M210.744 122.903C211.442 124.495 211.576 125.539 211.91 127.253C213.086 133.01 213.622 138.878 213.51 144.753C213.453 147.878 213.379 149.919 211.164 152.053C210.689 151.783 208.212 150.545 208.119 149.941C206.841 141.634 208.801 131.018 210.744 122.903Z" fill="#FEFEFE"/>
<path d="M447.325 82.752C452.879 81.985 471.172 79.595 475.543 80.45C476.882 81.927 477.638 82.037 479.515 82.674C495.699 81.013 508.897 99.63 509.926 114.284C510.695 125.238 506.786 135.244 504.595 145.852C501.114 162.169 496.25 178.659 493.032 195.031L478.889 191.87C484.482 172.357 488.686 152.111 493.937 132.471C494.691 129.649 495.144 126.52 495.431 123.613C496.207 115.936 488.027 108.515 480.397 109.699C467.916 112.132 455.261 112.854 442.777 115.093C439.921 115.611 436.099 117.284 433.757 118.79C430.355 120.96 427.624 124.035 425.872 127.671C423.804 131.957 422.627 138.155 421.737 142.944C419.506 154.954 416.07 166.712 413.578 178.641L398.332 175.023C397.463 175.105 397.641 175.005 396.7 174.61C395.748 174.739 386.365 173.389 384.327 173.185L384.429 161.212C391.907 157.199 394.832 155.365 400.406 148.992C405.263 137.724 398.911 106.554 404.531 96.746C410.903 85.627 434.736 85.306 447.325 82.752Z" fill="#297AF6"/>
<path d="M400.406 148.992C405.263 137.724 398.911 106.554 404.531 96.746C410.903 85.627 434.736 85.306 447.325 82.752C450.097 83.442 450.751 83.122 448.129 84.807C416.441 89.52 414.239 103.904 407.469 131.439C405.971 137.331 404.381 143.199 402.699 149.041C401.054 156.929 397.762 167.417 396.7 174.61C395.748 174.739 386.365 173.389 384.327 173.185L384.429 161.212C391.907 157.199 394.832 155.365 400.406 148.992Z" fill="#1845FA"/>
<path d="M447.325 82.752C452.879 81.985 471.172 79.595 475.543 80.45C476.882 81.927 477.638 82.037 479.515 82.674C467.783 84.561 442.456 86.472 432.834 90.709C427.591 93.018 423.039 96.928 419.685 101.546C411.016 113.48 403.84 157.61 398.332 175.023C397.463 175.105 397.641 175.005 396.7 174.61C397.762 167.417 401.054 156.929 402.699 149.041C404.381 143.199 405.971 137.331 407.469 131.439C414.239 103.904 416.441 89.52 448.129 84.807C450.751 83.122 450.097 83.442 447.325 82.752Z" fill="#111322"/>
<path d="M447.325 82.752C452.879 81.985 471.172 79.595 475.543 80.45C471.908 82.313 453.365 84.139 448.129 84.807C450.751 83.122 450.097 83.442 447.325 82.752Z" fill="#2A51C4"/>
<path d="M227.51 169.543C270.997 183.327 337.206 180.83 379.577 163.37L379.454 183.024C363.23 197.658 324.908 204.53 303.016 205.41C278.801 206.384 229.575 199.754 211.671 183.062C211.601 176.58 211.576 170.097 211.597 163.614C215.437 165.705 217.799 166.66 221.89 168.007C223.883 168.51 225.551 168.802 227.51 169.543Z" fill="#297AF6"/>
<path d="M221.89 168.007C223.883 168.51 225.551 168.802 227.51 169.543C227.501 171.454 229.362 193.779 222.342 186.304C221.708 185.628 221.952 170.74 221.89 168.007Z" fill="#FEFEFE"/>
<path d="M280.157 6.75C295.523 5.417 371.111 8.25 376.538 23.42C372.319 35.354 323.804 39.186 312.124 39.971C306.297 40.306 300.461 40.469 294.624 40.461C274.819 40.386 228.094 37.856 214.175 23.871C226.175 11.024 262.799 7.665 280.157 6.75Z" fill="#1ADAFC"/>
<path d="M257.079 32.314C245.442 30.791 220.216 22.786 246.257 15.596C250.27 14.488 257.277 13.303 261.5 12.783C261.85 13.495 261.784 13.397 261.96 14.23C257.264 15.678 249.745 17.024 247.42 21.741C244.716 27.228 255.888 30.343 259.021 31.189C258.101 31.939 258.137 32.017 257.079 32.314Z" fill="#FEFEFE"/>
<path d="M259.021 31.189C260.108 31.382 264.505 32.175 265.191 32.779L265.198 32.823C264.438 33.717 258.344 32.642 257.079 32.314C258.137 32.017 258.101 31.939 259.021 31.189Z" fill="#C9F9FD"/>
<path d="M261.5 12.7829C262.925 12.2799 267.442 12.2099 269.094 12.1189C266.34 13.1109 264.797 13.5319 261.96 14.2299C261.784 13.3969 261.85 13.4949 261.5 12.7829Z" fill="#FEFEFE"/>
<path d="M214.879 101.025C228.681 109.067 238.576 110.18 253.64 113.637C275.559 118.666 378.353 120.038 382.777 91.641C387.806 93.936 400.581 99.689 391.383 106.129C369.394 121.524 334.595 126.376 308.148 127.435C294.709 127.978 281.247 127.606 267.858 126.322C248.086 124.531 227.824 121.431 209.77 112.803C192.264 104.437 193.503 100.595 209.13 91.51C210.11 94.246 211.266 96.373 212.578 98.948C213.444 99.813 213.887 100.33 214.879 101.025Z" fill="#297AF6"/>
<path d="M214.879 101.025C214.973 103.474 214.669 106.484 215.492 108.754C216.149 110.568 218.49 110.57 219.733 111.503C219.793 112.007 219.204 112.173 218.776 112.178C211.535 112.266 207.76 104.47 212.578 98.948C213.444 99.813 213.887 100.33 214.879 101.025Z" fill="#FEFEFE"/>
<path d="M466.602 118.707L471.701 118.246C469.524 128.771 466.244 140.465 463.706 151.072C460.944 162.614 458.182 176.053 454.548 187.222C446.792 185.881 439.174 183.617 431.269 182.207C427.388 181.208 424.007 180.487 420.069 179.718C421.322 172.201 423.959 163.824 425.325 156.585C432.086 120.767 433.069 122.556 466.602 118.707Z" fill="#2E282B"/>
<path d="M480 116.677C488.841 116.053 495.334 115.999 492.707 127.491C490.411 137.537 488.023 147.839 485.304 157.778C482.345 168.597 480.291 180.604 476.883 191.196L475.897 191.469C471.352 190.389 466.12 189.476 461.493 188.614C462.948 180.66 477.625 119.686 480 116.677Z" fill="#1845FA"/>
<path d="M545.805 628.065C551.637 619.055 558.702 610.256 566.247 602.617C571.028 597.777 577.549 594.023 582.435 589.174C594.37 577.369 597.642 556.205 594.359 540.343C592.486 531.29 587.826 522.14 584.669 513.388C569.057 470.101 600.465 429.628 635.096 407.061C620.493 429.53 609.833 451.543 614.438 479.319C616.058 494.781 630.392 509.848 633.975 523.418C643.716 560.311 637.495 608.919 619.071 642.276C610.867 657.13 561.513 685.323 562.927 698.988C565.898 703.78 571.537 699.342 574.643 697.011C563.707 717.417 549.868 711.176 533.812 722.73C529.946 725.512 526.007 731.62 523.963 735.708C516.722 750.191 509.741 758.667 493.693 763.152C481.292 766.618 469.637 768.557 457.272 773.015C447.112 776.677 439.474 782.343 430.488 786.029C436.065 779.695 442.138 776.171 447.322 770.775C435.804 773.053 422.772 777.78 411.217 780.768C406.288 782.042 401.558 783.803 396.469 784.548C400.903 780.741 409.389 775.152 414.371 771.708C427.34 762.84 440.361 754.048 453.434 745.334C466.413 736.592 487.854 723.428 488.527 705.745C489.223 703.979 491.296 687.849 491.853 684.736C499.729 670.801 497.251 667.535 515.728 662.628C515.126 665.101 513.634 671.88 512.794 673.932C516.663 680.84 527.516 671.737 530.591 668.07C530.028 663.19 534.293 650.631 535.86 645.786C537.424 644.707 538.173 642.312 539.101 640.442C541.345 636.002 543.253 632.379 545.805 628.065Z" fill="#1ADAFC"/>
<path d="M545.805 628.065C551.637 619.055 558.702 610.256 566.247 602.617C571.028 597.777 577.549 594.023 582.435 589.174C594.37 577.369 597.642 556.205 594.359 540.343C592.486 531.29 587.826 522.14 584.669 513.388C569.057 470.101 600.465 429.628 635.096 407.061C620.493 429.53 609.833 451.543 614.438 479.319C616.058 494.781 630.392 509.848 633.975 523.418C643.716 560.311 637.495 608.919 619.071 642.276C610.867 657.13 561.513 685.323 562.927 698.988C565.898 703.78 571.537 699.342 574.643 697.011C563.707 717.417 549.868 711.176 533.812 722.73C529.946 725.512 526.007 731.62 523.963 735.708C516.722 750.191 509.741 758.667 493.693 763.152C481.292 766.618 469.637 768.557 457.272 773.015C447.112 776.677 439.474 782.343 430.488 786.029C436.065 779.695 442.138 776.171 447.322 770.775C435.804 773.053 422.772 777.78 411.217 780.768C406.288 782.042 401.558 783.803 396.469 784.548C400.903 780.741 409.389 775.152 414.371 771.708C427.34 762.84 440.361 754.048 453.434 745.334C466.413 736.592 487.854 723.428 488.527 705.745C489.223 703.979 491.296 687.849 491.853 684.736C499.729 670.801 497.251 667.535 515.728 662.628C515.126 665.101 513.634 671.88 512.794 673.932C502.43 668.02 499.625 679.616 497.953 687.229C495.697 697.505 497.28 715.398 491.599 724.302C489.274 727.883 486.404 731.08 483.092 733.776C471.997 742.87 455.859 749.933 443.964 758.462C438.233 762.571 431.704 765.919 425.828 770.192C441.458 764.831 456.251 761.166 472.301 757.485C481.006 755.489 490.893 754.184 498.954 751.241C516.115 744.975 513.55 735.886 519.033 721.643C522.234 713.327 533.057 712.471 540.919 709.772C560.787 702.951 553.392 692.932 561.146 678.344C566.781 668.194 578.175 657.641 588.269 652.081C600.089 645.57 604.156 644.743 610.12 631.51C616.333 617.724 619.528 604.829 622.862 589.863C627.262 570.108 634.245 546.079 627.039 526.1C621.674 513.805 610.26 500.951 605.393 486.757C599.629 469.949 606.931 449.025 614.26 433.804C606.614 440.928 601.808 450.408 597.195 459.154C573.488 504.096 607.557 526.87 602.416 569.958C601.325 579.102 598.412 588.182 593.415 596.166C586.355 607.445 571.112 607.458 563.113 617.325C547.608 636.45 551.134 651.845 530.591 668.07C530.028 663.19 534.293 650.631 535.86 645.786C537.424 644.707 538.173 642.312 539.101 640.442C541.345 636.002 543.253 632.379 545.805 628.065Z" fill="#297AF6"/>
<path d="M599.01 468.279C600.529 471.64 599.689 478.453 599.944 482.294C600.23 486.613 600.804 491.049 602.113 495.189C606.261 508.309 615.604 518.783 619.448 531.796C621.666 539.302 621.993 547.354 621.356 555.114C620.078 570.679 608.769 617.131 599.085 628.717C594.445 634.268 587.747 637.691 581.923 641.8C575.553 646.293 569.656 652.332 564.869 658.459C556.708 668.903 555.153 682.805 546.034 692.636C537.319 702.029 522.283 700.442 515.194 711.349C510.78 718.138 510.263 726.597 506.318 733.692C504.422 737.101 501.858 740.006 498.577 742.136C491.691 746.607 473.038 751.121 464.383 753.648C461.512 754.328 458.645 755.022 455.781 755.733C464.256 750.677 475.221 747.91 483.797 742.435C504.012 729.531 503.991 718.545 506.515 696.417C508.136 682.205 527.425 687.13 537.166 680.356C552.923 672.027 554.49 635.073 567.118 626.567C583.662 615.423 589.603 624.82 601.523 599.642C612.131 577.235 613.833 550.191 605.286 526.577C596.792 503.107 593.318 492.738 599.01 468.279Z" fill="#C9F9FD"/>
<path d="M28.2 609.928C35.697 604.681 41.967 600.736 47.354 593.158C57.553 578.811 58.974 557.345 48.821 542.658C42.685 533.781 34.187 529.758 32.238 517.292C30.511 506.25 35.183 489.796 41.419 480.86C33.355 510.276 43.869 518.997 68.486 533.228C74.488 536.697 80.448 539.821 82.635 546.934C86.792 560.457 79.945 574.417 79.533 587.852C79.269 596.463 82.015 605.558 84.308 613.779C79.957 619.022 76.35 623.265 73.253 629.207C58.098 658.283 80.624 661.675 87.156 683.054L87.352 683.717L87.47 684.389C89.345 695.533 87.692 701.06 87.577 711.47C87.453 722.603 94.183 733.954 103.19 740.386C116.661 750.008 124.654 746.529 139.368 746.589C157.985 748.305 158.558 750.815 169.87 764.147C174.776 769.929 196.746 775.649 204.258 775.69C225.812 775.806 241.112 778.585 261.72 785.488C287.818 794.229 318.736 798.284 345.059 788.244C361.461 782.404 374.54 773.013 389.79 766.145C378.889 776.303 367.119 785.864 355.288 794.927C335.941 809.747 313.43 814.848 289.672 816.515C294.56 813.39 299.959 810.197 304.131 806.197C285.203 805.344 278.836 806.99 262.605 814.514C253.421 818.772 228.341 814.712 218.641 811.413C226.266 810.343 232.738 809.813 238.758 804.334C217.21 788.158 193.179 795.973 170.724 805.29C156.966 810.999 141.214 812.969 126.725 808.649C125.426 808.262 120.653 807.058 119.407 807.05L118.971 806.594C117.186 804.767 120.811 805.428 122.012 805.417C125.284 804.958 130.047 804.219 132.417 802.117C147.736 788.623 113.912 785.614 106.832 783.638C91.027 779.406 78.23 767.862 71.721 752.907C67.268 742.678 65.812 730.407 59.92 720.864C55.822 714.227 43.717 711.121 39.267 704.913C34.136 697.757 35.205 684.32 32.08 676.034C28.173 665.156 22.949 659.096 20.185 647.7C18.558 640.967 18.088 634.005 18.798 627.114C20.342 612.055 24.527 605.049 35.912 595.852C33.092 600.491 30.024 604.857 28.2 609.928Z" fill="#297AF6"/>
<path d="M119.407 807.05L118.971 806.594C117.186 804.767 120.811 805.428 122.012 805.417C121.154 806.103 120.367 806.499 119.407 807.05Z" fill="#2275F3"/>
<path d="M38.312 517.743C40.553 518.504 46.11 523.442 48.4 525.154C59.71 533.61 75.552 546.308 76.975 561.465C77.605 568.181 72.632 579.022 72.983 586.237C73.082 592.068 74.327 596.112 75.376 601.749C78.391 615.105 67.333 622.487 60.854 631.827C53.376 642.605 50.975 659.131 62.636 668.079C68.852 672.848 76.978 680.237 79.864 687.618C82.43 694.179 80.81 703.841 80.796 711.051C80.809 715.554 81.226 720.047 82.042 724.476C89.59 765.224 122.116 750.083 151.239 757.558C160.136 759.841 156.172 771.106 169.088 775.516C188.739 782.17 209.42 781.546 229.811 784.977C244.617 787.468 246.942 786.307 259.495 795.026C271.207 794.969 276.161 794.847 287.707 797.296C274.774 799.603 270.397 800.037 259.088 806.466C255.201 808.559 252.043 809.74 247.907 811.209C247.238 803.112 245.059 798.305 237.409 794.795C213.346 783.751 187.751 787.464 164.118 797.474C162.02 798.597 151.603 800.486 150.254 799.151C143.736 792.701 145.974 785.722 135.661 780.102C123.045 773.229 107.113 774.394 95.074 768.224C76.178 758.541 77.082 729.761 67.123 713.302C59.872 700.919 52.657 701.905 44.634 692.462C42.522 689.976 41.506 678.333 39.447 673.503C36.051 665.538 30.894 659.359 28.416 650.961C26.244 647.383 26.421 622.027 30.125 620.448C42.471 615.188 53.514 607.454 60.636 594.112C64.985 585.965 65.398 579.925 64.76 570.187C63.724 554.376 57.354 542.61 46.54 531.226C43.68 528.094 39.577 521.941 38.312 517.743Z" fill="#1ADAFC"/>
<path d="M66.607 592.916C67.102 592.711 67.428 592.597 67.942 592.429C68.17 604.729 68.219 610.906 58.501 620.366C48.902 629.099 43.725 637.868 44.197 651.2C44.477 659.124 47.309 668.249 53.635 673.535C64.371 682.507 75.614 687.554 75.529 703.979C76.17 707.411 76.121 716.052 76.171 719.901C75.528 717.368 74.821 715.214 74.715 712.578C74.545 712.004 74.363 711.434 74.17 710.867C68.801 695.13 62.007 691.683 48.046 684.782C47.85 678.387 47.581 671.889 45.004 666.106C41.3 657.794 33.284 649.545 34.487 639.593C37.136 617.682 63.933 618.107 66.607 592.916Z" fill="#C9F9FD"/>
<path d="M75.529 703.979C76.17 707.411 76.121 716.052 76.171 719.901C75.528 717.368 74.821 715.214 74.715 712.578C76.222 710.228 75.125 707.331 75.529 703.979Z" fill="#C9F9FD"/>
<path d="M88.111 752.437C94.432 755.267 99.328 759.082 106.388 761.148C121.38 765.534 141.74 764.612 153.904 775.339C161.673 782.191 164.535 783.729 174.683 784.98C176.159 784.954 182.399 784.481 183.09 785.4C182.913 786.233 180.318 786.812 179.504 786.93C174.118 788.262 163.271 790.665 157.921 791.476C150.908 790.65 146.703 778.61 141.31 775.215C122.741 763.525 104.615 768.539 88.111 752.437Z" fill="#C9F9FD"/>
<path d="M174.683 784.98C176.159 784.954 182.399 784.481 183.09 785.4C182.913 786.233 180.318 786.812 179.504 786.93C177.817 785.847 176.672 785.653 174.683 784.98Z" fill="#30E9FC"/>
<path d="M66.607 592.916C66.527 591.973 67.397 581.29 68.496 579.788C68.801 579.371 69.0951 580.629 69.5661 578.828L69.6961 578.784C70.0681 579.718 69.466 580.759 69.154 581.644C67.972 584.998 68.283 589.004 67.942 592.429C67.428 592.597 67.102 592.711 66.607 592.916Z" fill="#30E9FC"/>
<path d="M362.513 782.592L362.698 782.826L362.545 783.528C342.465 796.653 333.858 802.612 310.436 809.052C311.418 806.216 312.861 804.721 310.816 802.221C308.796 801.265 305.957 801.365 303.625 801.245C300.63 801.221 297.268 801.388 294.418 800.666L294.044 800.026C296.816 798.131 324.616 798.217 332.3 796.079C345.307 792.46 350.741 788.656 362.513 782.592Z" fill="#1ADAFC"/>
<path d="M632.434 159.734C642.809 172.344 653.075 197.525 659.785 212.793C660.853 215.224 662.244 223.316 661.766 225.868C659.033 240.473 649.373 248.301 647.468 263.952C645.792 277.728 641.208 294.27 629.625 302.835C618.752 310.744 610.193 317.397 601.73 328.098C592.15 340.212 590.139 352.204 584.07 365.593C582.113 369.913 572.755 379.466 569.169 383.668L567.715 382.233C568.602 380.121 569.663 378.27 568.903 376.149C563.882 373.7 554.716 384.072 551.974 387.479C554.021 378.977 560.911 363.033 565.964 355.476C568.803 351.925 574.145 349.024 575.883 344.675C583.414 325.822 585.302 304.689 594.354 286.373C598.277 278.433 607.466 276.64 611.675 267.293C612.724 264.962 619.509 249.157 619.847 248.918C620.859 250.099 620.532 250.102 620.7 251.995C621.456 252.433 621.958 252.639 622.754 252.987C638.29 225.344 639.453 190.124 632.434 159.734Z" fill="#297AF6"/>
<path d="M620.7 251.995C621.456 252.433 621.958 252.639 622.754 252.987C620.685 256.623 620.092 255.683 620.7 251.995Z" fill="#0C0D2A"/>
<path d="M640.952 184.795C646.276 191.706 652.089 216.606 651.035 225.637C649.926 235.138 643.398 247.787 640.264 257.377C636.047 270.28 633.742 284.82 625.742 295.978C623.896 298.54 617.236 303.623 614.419 305.345C594.462 317.546 589.679 337.666 582.59 358.249C580.119 365.42 574.41 367.151 567.65 369.9L560.382 372.484C566.469 363.264 573.355 358.443 578.865 350.233C581.445 344.289 586.581 332.058 587.637 326.097C592.601 298.078 596.887 294.997 616.117 276.259C637.258 255.659 641.901 213.985 640.952 184.795Z" fill="#1ADAFC"/>
<path d="M594.735 312.909C598.029 303.261 603.487 291.097 612.824 285.986C619.703 282.22 624.223 279.149 627.969 271.939C635.784 256.899 639.91 240.188 642.574 223.534C642.694 222.783 642.863 222.524 643.305 221.935C645.2 225.4 640.923 241.31 639.773 245.144C634.676 262.149 627.826 283.981 615.433 297.2C604.193 300.683 602.396 303.141 596.054 313.034L594.735 312.909Z" fill="#C9F9FD"/>
<path d="M594.735 312.909L596.054 313.034C595.837 313.572 595.029 316.102 594.255 316.093C593.546 315.377 594.423 313.634 594.735 312.909Z" fill="#30E9FC"/>
<path d="M139.363 146.529L140.539 146.435C140.716 147.543 136.982 150.647 135.965 151.5C127.06 158.97 119.804 167.873 111.665 176.039C109.944 177.766 103.927 180.329 101.532 181.874C90.728 188.84 82.163 198.576 75.078 209.185L74.655 209.308L74.229 208.849C76.057 198.599 99.697 158.971 110.151 153.989C113.614 152.339 132.309 149.256 139.363 146.529Z" fill="#297AF6"/>
<path d="M120.371 157.618C120.972 157.476 121.185 157.362 121.757 157.507C122.204 158.166 119.634 159.709 119.048 160.262C117.346 162.035 114.569 164.552 113.255 166.516C110 171.384 107.651 172.11 103.051 175.099C99.486 177.414 96.073 179.954 92.832 182.704C92.525 182.878 91.651 183.567 91.3 183.094C91.548 177.733 109.85 159.058 115.999 158.517C117.092 158.421 119.219 157.837 120.371 157.618Z" fill="#30E9FC"/>
<path d="M654.105 583.957C653.664 580.389 654.213 576.63 653.561 572.999C653.266 571.357 653.232 569.269 653.205 567.592C653.797 569.667 655.302 574.434 655.477 576.362C660.165 593.102 664.672 608.304 656.025 624.74C650.06 636.08 623.175 659.857 612.092 665.053C612.212 664.88 612.333 664.706 612.454 664.532C618.931 656.672 625.891 651.884 632.143 643.392C639.226 633.773 639.135 629.259 641.98 618.158C642.222 617.217 646.022 610.893 646.82 609.612C651.731 601.729 653.81 593.268 654.105 583.957Z" fill="#297AF6"/>
<path d="M654.105 583.957C653.664 580.389 654.213 576.63 653.561 572.999C653.266 571.357 653.232 569.269 653.205 567.592C653.797 569.667 655.302 574.434 655.477 576.362C653.397 577.193 654.697 581.202 654.105 583.957Z" fill="#2A51C4"/>
<path d="M655.121 600.519C656.122 602.262 655.906 602.562 656.222 604.673C654.306 618.883 650.955 627.829 639.911 637.679C643.662 628.559 643.427 627.244 644.457 617.765C652.157 611.288 651.951 609.996 655.121 600.519Z" fill="#1ADAFC"/>
<path d="M655.121 600.519C655.18 599.653 655.455 597.427 656.07 596.851L656.194 596.83C656.913 597.389 656.387 603.557 656.222 604.673C655.906 602.562 656.122 602.262 655.121 600.519Z" fill="#22C3FD"/>
<path d="M22.368 280.989C24.219 280.477 23.749 282.043 23.76 283.501C20.741 300.343 27.808 305.653 27.314 320.895C27.078 328.196 17.783 338.023 19.066 347.247C19.777 352.365 21.907 354.481 24.361 358.755C31.127 370.537 26.745 385.915 22.812 397.918C21.964 397.8 21.67 397.75 20.846 397.552C22.756 375.518 14.595 365.696 11.936 345.198C10.216 337.103 20.428 323.513 19.755 317.421C17.947 301.068 16.959 296.954 22.368 280.989Z" fill="#297AF6"/>
<path d="M541.758 744.111C550.62 743.419 553.979 741.387 560.915 736.017L561.763 737.62C559.675 741.104 556.737 746.762 554.711 749.771C542.165 769.531 519.521 772.423 498.148 776.124C495.615 775.935 495.627 776.489 493.788 775.177C504.913 772.019 508.81 770.347 518.561 764.621C530.446 756.742 532.228 754.078 541.758 744.111Z" fill="#297AF6"/>
<path d="M551.833 750.676C552.796 750.385 553.755 750.084 554.711 749.771C542.165 769.531 519.521 772.423 498.148 776.124C495.615 775.935 495.627 776.489 493.788 775.177C504.913 772.019 508.81 770.347 518.561 764.621C519.079 765.463 519.468 766.356 520.053 767.156C530.039 765.358 544.189 757.197 551.833 750.676Z" fill="#2865EB"/>
<path d="M520.053 767.156C522.015 765.259 526.9 763.21 530.202 760.885C534.702 757.717 538.724 749.743 543.256 748.563C546.931 747.606 551.007 746.916 554.637 746.002L551.833 750.676C544.189 757.197 530.039 765.358 520.053 767.156Z" fill="#30E9FC"/>
<path d="M22.328 700.267C8.88502 684.575 -2.51899 673.742 0.545011 652.264C1.20301 647.652 1.66502 635.99 3.20502 632.25C4.91602 635.796 4.23701 642.092 5.21301 644.479C9.50601 654.98 11.821 657.091 11.743 668.643C11.687 676.934 19.083 693.642 24.314 700.262L22.328 700.267Z" fill="#2865EB"/>
<path d="M3.241 654.309L3.605 654.762C11.108 663.917 7.493 661.889 9.383 674.256C9.723 676.477 9.993 677.397 9.976 679.8C3.934 671.674 3.253 663.911 3.241 654.309Z" fill="#1ADAFC"/>
<path d="M641.341 464.497C644.695 469.505 647.563 474.088 650.289 479.459C652.41 484.064 653.688 487.309 654.804 492.3L654.376 492.922C652.401 495.716 653.159 495.739 652.075 498.44C651.422 500.125 650.996 502.176 650.291 504.125L650.107 504.645L650.377 505.269C650.73 506.135 651.168 506.703 651.79 507.396C650.415 513.068 650 516.613 649.917 522.47C650.264 530.274 650.067 532.004 651.176 540.198C649.739 537.193 648.582 534.518 648.461 531.111C646.278 520.667 643.566 507.161 640.716 497.061C647.119 486.453 643.825 475.988 641.341 464.497Z" fill="url(#paint6_linear_15_422)"/>
<path d="M648.311 481.508C648.655 480.839 648.92 480.447 649.535 480.021L650.289 479.459C652.41 484.064 653.688 487.309 654.804 492.3L654.376 492.922C652.401 495.716 653.159 495.739 652.075 498.44C651.422 500.125 650.996 502.176 650.291 504.125L650.107 504.645C649.472 507.465 648.484 510.211 647.661 512.981C646.925 508.787 646.203 504.453 645.514 500.248L645.214 498.324L645.608 497.555C649.287 490.515 648.058 488.737 648.311 481.508Z" fill="#30E9FC"/>
<path d="M648.311 481.508C648.655 480.839 648.92 480.447 649.535 480.021L650.289 479.459C652.41 484.064 653.688 487.309 654.804 492.3L654.376 492.922C652.401 495.716 653.159 495.739 652.075 498.44C651.409 493.624 650.237 485.893 648.311 481.508Z" fill="#2275F3"/>
<path d="M649.917 522.47C650.264 530.274 650.067 532.004 651.176 540.198C649.739 537.193 648.582 534.518 648.461 531.111C648.569 531.132 648.676 531.153 648.784 531.175C648.896 531.169 649.008 531.164 649.121 531.158C649.673 530.06 649.661 524.352 649.917 522.47Z" fill="#2865EB"/>
<path d="M40.949 728.601C42.395 736.238 43.141 747.951 50.288 752.938C53.942 755.487 53.744 753.559 56.127 757.81C55.819 761.088 60.48 769.231 62.764 771.938C67.213 777.21 71.816 779.254 77.313 782.838C72.073 781.329 62.418 778.009 58.039 774.831C48.132 769.784 41.325 762.895 39.785 751.67C39.117 744.14 39.986 736.093 40.949 728.601Z" fill="#2865EB"/>
<path d="M40.949 728.601C42.395 736.238 43.141 747.951 50.288 752.938C53.942 755.487 53.744 753.559 56.127 757.81C55.42 757.858 54.554 757.81 53.827 757.789C48.416 757.437 47.871 758.645 44.178 752.123C43.893 752.944 43.624 753.633 43.302 754.44L42.86 754.168C41.028 752.674 41.934 751.049 40.5 748.91L40.33 748.953C40.34 748.901 40.35 748.848 40.361 748.795L40.313 748.823C40.081 749.22 39.894 751.05 39.785 751.67C39.117 744.14 39.986 736.093 40.949 728.601Z" fill="#297AF6"/>
<path d="M42.86 754.168C42.893 753.235 42.531 750.111 42.813 749.812C43.356 749.962 43.932 751.604 44.178 752.123C43.893 752.944 43.624 753.633 43.302 754.44L42.86 754.168Z" fill="#1ADAFC"/>
<path d="M56.127 757.81C55.819 761.088 60.48 769.231 62.764 771.938C67.213 777.21 71.816 779.254 77.313 782.838C72.073 781.329 62.418 778.009 58.039 774.831C57.562 771.165 56.323 773.018 55.026 770.267C54.541 769.476 53.989 768.768 53.409 768.047C54.316 767.455 54.653 767.225 55.488 766.529C54.2 761.844 54.075 762.688 53.827 757.789C54.554 757.81 55.42 757.858 56.127 757.81Z" fill="url(#paint7_linear_15_422)"/>
<path d="M55.488 766.529C56.535 769.656 58.276 771.026 55.026 770.267C54.541 769.476 53.989 768.768 53.409 768.047C54.316 767.455 54.653 767.225 55.488 766.529Z" fill="#22C3FD"/>
<path d="M44.178 752.123C47.871 758.645 48.416 757.437 53.827 757.789C54.075 762.688 54.2 761.844 55.488 766.529C54.653 767.225 54.316 767.455 53.409 768.047C47.421 763.384 45.557 761.709 43.302 754.44C43.624 753.633 43.893 752.944 44.178 752.123Z" fill="#1ADAFC"/>
<path d="M569.291 417.338L569.583 417.616C570.031 418.712 569.757 420.402 569.464 421.574C568.021 427.331 568.78 434.665 567.972 440.137C567.503 443.31 563.106 448.95 561.693 452.504C557.566 462.879 556.9 473.353 555.716 484.327C553.662 481.224 553.811 451.768 554.031 446.41C554.343 438.771 564.754 424.31 569.291 417.338Z" fill="#2865EB"/>
<path d="M564.274 430.886C564.675 434.478 564.913 436.706 565.772 440.244C562.623 444.177 561.379 445.949 559.117 450.441C558.041 449.591 558.092 449.516 557.705 448.129C558.737 440.282 560.198 437.702 564.274 430.886Z" fill="#1ADAFC"/>
<path d="M557.705 448.129C558.092 449.516 558.041 449.591 559.117 450.441C558.584 452.614 557.215 455.906 556.434 458.165C556.61 456.44 556.825 454.719 557.08 453.004C557.305 451.454 557.372 449.558 557.705 448.129Z" fill="#22C3FD"/>
<path d="M650.649 125.72C653.069 129.179 656.775 134.622 658.639 138.337L658.919 138.867C661.717 144.072 662.471 146.1 663.223 151.753C663.484 154.48 663.239 177.614 661.162 178.277C660.952 178.226 660.722 178.148 660.647 177.896C658.49 170.612 655.929 163.821 652.015 157.267C651.514 156.427 652.248 154.543 652.584 153.805C656.808 145.948 652.636 133.654 650.649 125.72Z" fill="#30E9FC"/>
<path d="M663.223 151.753C663.484 154.48 663.239 177.614 661.162 178.277C660.952 178.226 660.722 178.148 660.647 177.896C658.49 170.612 655.929 163.821 652.015 157.267C651.514 156.427 652.248 154.543 652.584 153.805C654.824 154.556 654.011 153.946 656.208 153.367C654.051 157.067 656.515 158.727 658.601 162.765L660.999 162.124C661.006 160.771 661.022 159.932 661.165 158.585C662.403 155.792 661.394 154.549 663.223 151.753Z" fill="#297AF6"/>
<path d="M658.601 162.765L660.999 162.124C660.26 166.404 660.475 166.064 658.601 162.765Z" fill="#1ADAFC"/>
<path d="M650.649 125.72C653.069 129.179 656.775 134.622 658.639 138.337L658.919 138.867C657.633 138.674 657.939 138.84 657.059 139.945L656.902 139.958C656.475 140.425 656.732 140.711 657.003 141.241C657.08 144.246 657.974 151.251 656.208 153.367C654.011 153.946 654.824 154.556 652.584 153.805C656.808 145.948 652.636 133.654 650.649 125.72Z" fill="#2865EB"/>
<path d="M657.003 141.241C656.732 140.711 656.475 140.425 656.902 139.958L657.059 139.945C657.939 138.84 657.633 138.674 658.919 138.867C661.717 144.072 662.471 146.1 663.223 151.753C661.394 154.549 662.403 155.792 661.165 158.585C661.412 153.199 660.378 145.488 657.003 141.241Z" fill="#2275F3"/>
<path d="M605.418 231.016C606.147 229.875 606.105 229.768 607.4 229.49C608.61 255.366 609.998 254.172 591.66 272.462L590.139 271.278C592.14 266.923 593.731 262.392 594.892 257.742C595.549 255.065 595.646 252.157 596.234 249.855C597.339 247.202 598.389 246.739 599.889 244.448C602.061 241.133 603.767 236.815 604.939 233.045L605.418 231.016Z" fill="#297AF6"/>
<path d="M604.939 233.045C607.798 237.435 604.066 236.97 605.607 241.504C605.857 242.237 605.723 242.806 605.414 243.452C604.173 240.1 603.756 242.233 602.699 245.164C599.618 249.528 599.649 250.897 598.503 255.718C598.403 254.745 598.695 248.519 598.274 248.352C597.25 248.701 598.093 249.392 596.234 249.855C597.339 247.202 598.389 246.739 599.889 244.448C602.061 241.133 603.767 236.815 604.939 233.045Z" fill="#2275F3"/>
<path d="M602.699 245.164C603.756 242.233 604.173 240.1 605.414 243.452C605.152 244.474 604.941 245.357 604.735 246.398C603.961 252.582 601.196 256.398 597.728 261.292C598.074 259.132 598.473 257.891 598.503 255.718C599.649 250.897 599.618 249.528 602.699 245.164Z" fill="#30E9FC"/>
<path d="M568.81 288.883C568.285 292.744 567.446 296.602 566.97 300.407L566.836 301.353C564.677 310.65 561.151 310.961 556.637 318.961L552.203 330.156C551.409 308.763 555.691 304.653 568.81 288.883Z" fill="#297AF6"/>
<path d="M563.205 302.005C564.184 300.725 565.172 301.218 566.836 301.353C564.677 310.65 561.151 310.961 556.637 318.961C555.167 317.488 555.045 316.798 555.746 314.829C557.109 309.606 559.223 305.754 563.205 302.005Z" fill="#297AF6"/>
<path d="M563.205 302.005C563.026 304.331 557.41 314.045 555.746 314.829C557.109 309.606 559.223 305.754 563.205 302.005Z" fill="#30E9FC"/>
<path d="M570.288 547.153L571.307 549.532L571.065 550.514C569.588 555.966 569.789 561.327 569.78 566.907C566.711 572.404 560.582 580.173 559.787 586.312L558.201 585.352C560.487 578.372 559.673 571.156 560.082 564.246C560.265 561.147 568.349 550.603 570.288 547.153Z" fill="#2275F3"/>
<path d="M566.384 558.963C568.729 562.12 565.58 568.114 563.27 570.641C561.376 568.337 562.553 564.546 564.068 562.301C564.825 561.178 565.598 560.065 566.384 558.963Z" fill="#1ADAFC"/>
<path d="M627.012 403.234C630.599 397.824 636.734 388.763 640.647 383.81C641.51 382.718 653.542 376.282 655.352 375.337C654.325 377.294 651.901 382.252 650.439 383.638C647.646 388.403 646.957 391.643 642.051 394.132C636.584 396.978 632.375 400.365 627.012 403.234Z" fill="#2865EB"/>
<path d="M647.684 383.249C648.981 383.269 649.169 383.346 650.439 383.638C647.646 388.403 646.957 391.643 642.051 394.132C641.078 393.858 638.864 393.611 638.553 392.783C642.113 392.119 646.381 386.484 647.684 383.249Z" fill="#297AF6"/>
<path d="M647.684 383.249C646.381 386.484 642.113 392.119 638.553 392.783C639.07 391.476 639.633 390.189 640.241 388.922C642.02 385.306 643.814 384.553 647.684 383.249Z" fill="#1ADAFC"/>
<path d="M155.355 144.291C157.659 142.484 163.442 139.988 166.38 138.625L168.019 137.878C166.667 139.857 162.132 145.878 160.302 147.216C159.127 149.205 156.422 153.314 154.802 154.89C153.52 156.7 152.335 156.914 150.302 157.801L146.628 158.217C144.253 158.994 143.387 159.025 140.923 159.384C143.321 156.931 144.715 155.444 147.396 153.287C150.602 150.234 152.928 146.378 155.355 144.291Z" fill="#297AF6"/>
<path d="M155.355 144.291C157.659 142.484 163.442 139.988 166.38 138.625L168.019 137.878C166.667 139.857 162.132 145.878 160.302 147.216C158.533 147.261 158.964 148.204 158.275 148.218C157.998 141.379 153.91 149.611 152.458 149.503L152.301 149.21C152.568 148.287 154.645 145.798 155.355 144.291Z" fill="#2865EB"/>
<path d="M147.396 153.287L147.601 153.233C149.523 152.713 149.391 152.748 151.347 152.941C150.838 153.499 150.538 153.765 149.963 154.288L150.031 154.947C150.111 155.899 150.201 156.851 150.302 157.801L146.628 158.217C144.253 158.994 143.387 159.025 140.923 159.384C143.321 156.931 144.715 155.444 147.396 153.287Z" fill="#2865EB"/>
<path d="M146.628 158.217C146.84 156.337 148.517 155.316 149.963 154.288L150.031 154.947C150.111 155.899 150.201 156.851 150.302 157.801L146.628 158.217Z" fill="#2275F3"/>
<path d="M153.482 152.995C155.066 152.797 155.037 151.498 155.948 151.503C156.23 151.759 156.139 151.605 156.23 151.959C156.235 151.945 155.06 154.191 154.802 154.89C153.52 156.7 152.335 156.914 150.302 157.801C150.201 156.851 150.111 155.899 150.031 154.947C151.267 154.326 152.27 153.653 153.482 152.995Z" fill="#2275F3"/>
<path d="M158.574 144.469C157.093 147.851 154.509 150.599 153.482 152.995C152.27 153.653 151.267 154.326 150.031 154.947L149.963 154.288C150.538 153.765 150.838 153.499 151.347 152.941C153.773 149.951 155.958 147.312 158.574 144.469Z" fill="#1ADAFC"/>
<path d="M26.304 573.47C29.385 570.353 32.202 567.706 35.603 564.951C33.038 569.926 30.628 575.745 28.13 580.437C27.443 582.589 26.901 584.528 26.14 586.7C23.1 588.934 22.834 589.294 20.416 592.376C19.973 588.347 20.083 589.357 21.974 585.073L20.648 584.927C18.37 587.391 19.666 589.735 16.171 591.634C18.307 583.535 19.346 578.282 26.304 573.47Z" fill="#2275F3"/>
<path d="M16.171 591.634C18.307 583.535 19.346 578.282 26.304 573.47L26.018 575.105C25.833 576.171 25.39 577.072 25.137 578.174L25.92 579.221C24.071 582.536 24.525 582.034 21.974 585.073L20.648 584.927C18.37 587.391 19.666 589.735 16.171 591.634Z" fill="#297AF6"/>
<path d="M25.137 578.174L25.92 579.221C24.071 582.536 24.525 582.034 21.974 585.073L20.648 584.927L20.987 584.179C22.301 581.212 22.823 580.454 25.137 578.174Z" fill="#1ADAFC"/>
<path d="M25.92 579.221C27.322 580.258 24.936 582.507 25.419 584.556L25.808 584.812L25.61 584.898C26.625 584.919 25.429 581.009 28.13 580.437C27.443 582.589 26.901 584.528 26.14 586.7C23.1 588.934 22.834 589.294 20.416 592.376C19.973 588.347 20.083 589.357 21.974 585.073C24.525 582.034 24.071 582.536 25.92 579.221Z" fill="#297AF6"/>
<path d="M16.171 591.634C19.666 589.735 18.37 587.391 20.648 584.927L21.974 585.073C20.083 589.357 19.973 588.347 20.416 592.376C18.289 595.775 15.126 601.169 12.936 604.201C13.939 599.621 14.833 596.106 16.171 591.634Z" fill="#2275F3"/>
<path d="M586.734 400.306C587.265 399.012 589.209 395.985 590.028 394.595C589.491 397.737 588.71 402.698 588.019 405.673C586.435 408.393 583.91 409.683 581.411 411.291C583.201 406.363 583.854 404.828 586.734 400.306Z" fill="#2275F3"/>
<path d="M586.734 400.306C587.265 399.012 589.209 395.985 590.028 394.595C589.491 397.737 588.71 402.698 588.019 405.673C588.201 402.557 588.96 402.364 586.734 400.306Z" fill="#2865EB"/>
<path d="M654.804 492.3L655.065 494.256C655.848 499.779 653.61 502.22 651.79 507.396C651.168 506.703 650.73 506.135 650.377 505.269L650.107 504.645L650.291 504.125C650.996 502.176 651.422 500.125 652.075 498.44C653.159 495.739 652.401 495.716 654.376 492.922L654.804 492.3Z" fill="#297AF6"/>
<path d="M498.148 776.124C496.648 776.42 487.34 778.027 486.739 777.16C487.164 776.488 492.756 775.254 493.788 775.177C495.627 776.489 495.615 775.935 498.148 776.124Z" fill="#2A51C4"/>
<path d="M26.327 272.755C25.665 276.306 24.564 279.897 23.76 283.501C23.749 282.043 24.219 280.477 22.368 280.989C22.626 279.518 25.454 274.411 26.327 272.755Z" fill="#2A51C4"/>
<path d="M20.846 397.552C21.67 397.75 21.964 397.8 22.812 397.918C20.768 404.254 19.735 400.271 20.846 397.552Z" fill="#2865EB"/>
<path d="M590.139 271.278L591.66 272.462C590.568 273.951 588.89 275.815 587.665 277.256C588.478 275.258 589.302 273.266 590.139 271.278Z" fill="#2865EB"/>
<path d="M569.169 383.668C565.523 387.784 565.038 386.873 567.715 382.233L569.169 383.668Z" fill="#297AF6"/>
<path d="M606.567 223.565C606.884 225.499 607.324 227.558 607.4 229.49C606.105 229.768 606.147 229.875 605.418 231.016C605.976 228.371 606.198 226.225 606.567 223.565Z" fill="#2865EB"/>
<path d="M560.915 736.017C562.67 733.26 564.709 733.498 561.763 737.62L560.915 736.017Z" fill="#2865EB"/>
<path d="M570.288 547.153C570.55 546.466 570.827 545.698 571.446 545.265C572.48 545.4 571.429 548.882 571.307 549.532L570.288 547.153Z" fill="#2865EB"/>
<path d="M24.314 700.262C27.178 704.608 24.116 702.417 22.328 700.267L24.314 700.262Z" fill="#2A51C4"/>
<path d="M558.201 585.352L559.787 586.312C558.168 588.543 558.388 588.536 558.201 585.352Z" fill="#2865EB"/>
</g>
<defs>
<linearGradient id="paint0_linear_15_422" x1="323.221" y1="270.09" x2="305.512" y2="463.226" gradientUnits="userSpaceOnUse">
<stop stop-color="#2B96FA"/>
<stop offset="1" stop-color="#2CB1F8"/>
</linearGradient>
<linearGradient id="paint1_linear_15_422" x1="364.656" y1="750.653" x2="295.862" y2="461.723" gradientUnits="userSpaceOnUse">
<stop stop-color="#142DF3"/>
<stop offset="1" stop-color="#2582F4"/>
</linearGradient>
<linearGradient id="paint2_linear_15_422" x1="291.939" y1="708.844" x2="292.339" y2="702.292" gradientUnits="userSpaceOnUse">
<stop stop-color="#23201C"/>
<stop offset="1" stop-color="#191D34"/>
</linearGradient>
<linearGradient id="paint3_linear_15_422" x1="118.944" y1="432.522" x2="105.953" y2="435.743" gradientUnits="userSpaceOnUse">
<stop stop-color="#BEFDFD"/>
<stop offset="1" stop-color="#FFFEFE"/>
</linearGradient>
<linearGradient id="paint4_linear_15_422" x1="98.0491" y1="609.445" x2="127.874" y2="603.219" gradientUnits="userSpaceOnUse">
<stop stop-color="#10C9FD"/>
<stop offset="1" stop-color="#27B1FF"/>
</linearGradient>
<linearGradient id="paint5_linear_15_422" x1="96.7801" y1="514.596" x2="123.037" y2="512.194" gradientUnits="userSpaceOnUse">
<stop stop-color="#0DD5FD"/>
<stop offset="1" stop-color="#2AA7FF"/>
</linearGradient>
<linearGradient id="paint6_linear_15_422" x1="641.698" y1="499.804" x2="649.986" y2="499.219" gradientUnits="userSpaceOnUse">
<stop stop-color="#3057F0"/>
<stop offset="1" stop-color="#2674F3"/>
</linearGradient>
<linearGradient id="paint7_linear_15_422" x1="69.0951" y1="768.8" x2="57.7004" y2="772.602" gradientUnits="userSpaceOnUse">
<stop stop-color="#395FC0"/>
<stop offset="1" stop-color="#276BFB"/>
</linearGradient>
<clipPath id="clip0_15_422">
<rect width="663" height="817" fill="white"/>
</clipPath>
</defs>
</svg>
