<svg width="636" height="620" viewBox="0 0 636 620" fill="none" xmlns="http://www.w3.org/2000/svg">
<g clip-path="url(#clip0_15_293)">
<path d="M163.599 25.908C170.182 26.67 179.296 27.6409 185.448 29.9859L184.423 27.626C185.912 28.235 186.455 28.449 188.03 28.849L188.925 27.682L280.505 41.457C293.864 43.308 307.206 45.2889 320.527 47.3999C332.786 49.2819 347.931 50.456 358.176 58.164C392.69 77.902 416.493 123.862 426.515 161.126C430.229 174.935 432.721 187.225 435.006 201.255C427.43 202.85 419.016 204.482 411.317 205.311C375.132 209.21 338.453 203.539 303.144 195.796C297.454 194.548 290.782 192.501 284.997 192.167L284.252 192.838C287.558 221.382 288.008 240.42 285.733 269.119C282.356 295.826 278.332 320.403 269.059 345.724C268.15 348.207 267.068 351.676 266.506 354.212L264.653 352.046C250.73 389.543 223.521 433.785 185.939 450.604C185.05 451.002 183.047 451.835 182.344 452.279C168.969 456.435 159.402 458.45 145.054 456.488C143.893 456.814 142.741 457.169 141.598 457.554C138.233 456.609 138.529 456.655 135.262 458.248L135.327 456.967C134.264 455.15 132.171 454.681 130.149 454.392C129.889 454.239 129.629 454.087 129.37 453.935C127.573 452.95 119.616 448.917 118.136 448.436L117.383 447.983C115.736 446.685 110.503 443.422 108.662 442.514C108.449 441.951 108.246 441.384 108.052 440.815C107.206 440.023 106.915 439.686 105.937 439.055C106.498 438.353 106.687 438.277 107.463 437.67C77.164 414.092 58.597 370.207 48.933 333.989C40.121 299.314 38.422 276.534 38.395 241.514C38.596 228.674 40.182 210.659 41.891 197.893C44.692 197.703 47.493 197.54 50.297 197.403C55.037 173.581 60.67 147.614 71.529 125.617C69.739 123.556 66.142 117.578 64.517 115.027C77.813 84.573 94.166 60.036 120.704 39.763C136.413 31.043 144.72 26.416 163.599 25.908Z" fill="#130C1C"/>
<path d="M188.925 27.6821L280.505 41.4571C293.864 43.3081 307.206 45.2891 320.527 47.4001C332.786 49.2821 347.931 50.4561 358.176 58.1641C392.69 77.9021 416.493 123.862 426.515 161.126C430.229 174.935 432.721 187.225 435.006 201.255C427.43 202.85 419.016 204.482 411.317 205.311C375.132 209.21 338.453 203.539 303.144 195.796C297.454 194.548 290.782 192.501 284.997 192.167L284.252 192.838C283.733 189.893 283.212 186.949 282.731 183.959C274.471 132.589 255.059 79.0241 214.36 44.4481C211.314 41.8601 207.989 39.8341 205.009 37.2241L204.668 36.9211C202.506 36.2181 191.576 30.4221 188.03 28.8491L188.925 27.6821Z" fill="#0D10F5"/>
<path d="M188.925 27.6821L280.505 41.4571C293.864 43.3081 307.206 45.2891 320.527 47.4001C332.786 49.2821 347.931 50.4561 358.176 58.1641C354.356 58.9071 350.958 59.0611 347.078 59.1141C305.549 59.6851 264.669 51.9591 224.498 42.1291C218.277 40.6061 210.825 37.8381 204.668 36.9211C202.506 36.2181 191.576 30.4221 188.03 28.8491L188.925 27.6821Z" fill="#B8CCF3"/>
<path d="M255.446 68.8569C258.825 68.9909 274.477 81.3629 279.355 84.2179C295.118 93.6089 311.684 101.583 328.856 108.048C331.963 109.216 337.089 110.536 338.861 112.885C334.158 112.61 325.674 109.292 321.195 107.411C302.32 99.4829 283.677 90.2339 266.872 78.4719C263.427 76.0609 257.639 72.3819 255.446 68.8569Z" fill="#130C1C"/>
<path d="M356.85 115.508C360.229 115.895 363.43 116.962 366.996 117.171C368.996 117.289 371.544 117.386 372.186 119.441L372.401 120.089C368.8 119.652 357.702 119.278 356.85 115.508Z" fill="#130C1C"/>
<path d="M41.891 197.893C44.692 197.703 47.493 197.54 50.297 197.403C41.289 263.594 49.05 337.418 88.791 393.083C115.954 431.129 160.529 446.81 199.575 415.836C242.476 381.803 262.169 324.624 268.454 272.026C268.573 271.038 268.681 270.049 268.779 269.059C273.489 269.141 278.913 269.101 283.559 269.349C281.79 294.388 273.729 328.62 264.653 352.046C250.73 389.543 223.521 433.785 185.939 450.604C185.05 451.002 183.047 451.835 182.344 452.279C168.969 456.435 159.402 458.45 145.054 456.488C143.893 456.814 142.741 457.169 141.598 457.554C138.233 456.609 138.529 456.655 135.262 458.248L135.327 456.967C134.264 455.15 132.171 454.681 130.149 454.392C129.889 454.239 129.629 454.087 129.37 453.935C127.573 452.95 119.616 448.917 118.136 448.436L117.383 447.983C115.736 446.685 110.503 443.422 108.662 442.514C108.449 441.951 108.246 441.384 108.052 440.815C107.206 440.023 106.915 439.686 105.937 439.055C106.498 438.353 106.687 438.277 107.463 437.67C77.164 414.092 58.597 370.207 48.933 333.989C40.121 299.314 38.422 276.534 38.395 241.514C38.596 228.674 40.182 210.659 41.891 197.893Z" fill="#0D10F5"/>
<path d="M107.463 437.67C109.776 439.334 112.084 441.511 114.509 443.033C123.166 448.469 133.139 453.244 143.005 455.943L145.054 456.488C143.893 456.814 142.741 457.169 141.598 457.554C138.233 456.609 138.529 456.655 135.262 458.248L135.327 456.967C134.264 455.15 132.171 454.681 130.149 454.392C129.889 454.239 129.629 454.087 129.37 453.935C127.573 452.95 119.616 448.917 118.136 448.436L117.383 447.983C115.736 446.685 110.503 443.422 108.662 442.514C108.449 441.951 108.246 441.384 108.052 440.815C107.206 440.023 106.915 439.686 105.937 439.055C106.498 438.353 106.687 438.277 107.463 437.67Z" fill="url(#paint0_linear_15_293)"/>
<path d="M163.599 25.908C170.182 26.67 179.296 27.6409 185.448 29.9859L184.423 27.626C185.912 28.235 186.455 28.449 188.03 28.849C191.576 30.422 202.506 36.218 204.668 36.921L205.009 37.224C207.989 39.834 211.314 41.86 214.36 44.448C255.059 79.024 274.471 132.589 282.731 183.959C283.212 186.949 283.733 189.893 284.252 192.838C287.558 221.382 288.008 240.42 285.733 269.119C282.356 295.826 278.332 320.403 269.059 345.724C268.15 348.207 267.068 351.676 266.506 354.212L264.653 352.046C273.729 328.62 281.79 294.388 283.559 269.349C278.913 269.101 273.489 269.141 268.779 269.059C271.268 248.18 270.932 212.898 266.801 192.051C264.229 179.117 262.287 166.481 258.279 153.757C246.986 117.906 226.831 76.689 192.128 58.462C176.038 50.012 158.025 47.389 140.763 53.164C105.148 65.078 87.667 95.088 71.529 125.617C69.739 123.556 66.142 117.578 64.517 115.027C77.813 84.573 94.166 60.036 120.704 39.763C136.413 31.043 144.72 26.416 163.599 25.908Z" fill="#0D10F5"/>
<path d="M266.801 192.051C271.849 191.95 276.898 191.915 281.947 191.946C284.891 217.036 286.436 244.148 283.559 269.349C278.913 269.101 273.489 269.141 268.779 269.059C271.268 248.18 270.932 212.898 266.801 192.051Z" fill="#1E48FB"/>
<path d="M184.423 27.626C185.912 28.235 186.455 28.449 188.03 28.849C191.576 30.422 202.506 36.218 204.668 36.921L205.009 37.224C207.989 39.834 211.314 41.86 214.36 44.448C255.059 79.024 274.471 132.589 282.731 183.959C283.212 186.949 283.733 189.893 284.252 192.838C287.558 221.382 288.008 240.42 285.733 269.119C282.356 295.826 278.332 320.403 269.059 345.724C268.15 348.207 267.068 351.676 266.506 354.212L264.653 352.046C273.729 328.62 281.79 294.388 283.559 269.349C286.436 244.148 284.891 217.036 281.947 191.946C279.395 167.204 268.079 128.425 257.533 106.058C243.245 75.751 217.789 41.56 185.448 29.986L184.423 27.626Z" fill="#130C1C"/>
<path d="M73.528 127.076C79.024 115.619 83.664 106.699 90.843 96.341C139.657 25.914 206.549 46.142 241.15 116.368C254.661 143.79 258.984 162.31 264.69 192.084C267.783 211.663 268.656 230.991 268.078 250.781C267.933 255.751 267.752 264.364 266.733 269.133C266.271 271.651 265.971 275.233 265.561 277.994C258 328.887 238.69 383.862 196.058 415.807C182.224 426.5 163.764 432.16 146.3 429.403C104.558 422.814 79.37 381.079 65.801 344.612C48.382 297.797 45.143 245.276 52.643 196.09C56.75 172.316 63.764 149.138 73.528 127.076Z" fill="#130C1C"/>
<path d="M266.733 269.133C266.271 271.651 265.971 275.233 265.561 277.994C258 328.887 238.69 383.862 196.058 415.807C182.224 426.5 163.764 432.16 146.3 429.403C104.558 422.814 79.37 381.079 65.801 344.612C48.382 297.797 45.143 245.276 52.643 196.09C54.764 196.873 61.028 196.536 63.887 196.615C62.38 206.81 60.621 218.215 60.168 228.575C57.998 278.182 65.923 330.903 95.361 372.09C118.961 405.108 157.426 419.835 191.77 392.765C228.963 363.448 245.285 313.189 251.815 267.897C256.797 268.189 261.771 268.601 266.733 269.133Z" fill="#0D10F5"/>
<path d="M73.528 127.076C79.024 115.619 83.664 106.699 90.843 96.341C139.657 25.914 206.549 46.142 241.15 116.368C254.661 143.79 258.984 162.31 264.69 192.084C259.743 192.179 254.312 192.399 249.402 192.321C247.771 184.035 245.818 175.816 243.547 167.681C234.586 136.004 216.116 99.498 186.366 82.815C152.709 63.941 121.235 81.718 100.112 109.711C93.127 118.968 88.458 127.423 82.86 137.645C79.565 134.406 77.012 130.459 73.528 127.076Z" fill="#0D10F5"/>
<path d="M264.69 192.084C267.783 211.663 268.656 230.991 268.078 250.781C267.933 255.751 267.752 264.364 266.733 269.133C261.771 268.601 256.797 268.189 251.815 267.897C254.212 240.941 254.256 219.076 249.402 192.321C254.312 192.399 259.743 192.179 264.69 192.084Z" fill="#1E48FB"/>
<path d="M73.528 127.076C77.012 130.459 79.565 134.406 82.86 137.645C73.913 156.359 67.531 176.194 63.887 196.615C61.028 196.536 54.764 196.873 52.643 196.09C56.75 172.316 63.764 149.138 73.528 127.076Z" fill="#1E48FB"/>
<path d="M84.689 139.557C97.896 114.077 113.941 89.2399 142.588 79.7369C156.22 75.2149 171.999 77.3139 184.355 84.2569C222.463 105.671 238.836 152.11 247.355 192.076C251.389 222.955 252.036 235.559 249.753 267.222C249.494 270.843 248.587 275.822 247.904 279.492C240.288 320.426 222.779 368.441 187.33 393.217C174.369 402.276 158.987 406.635 143.351 403.708C122.474 399.799 105.396 383.486 93.91 366.348C62.903 320.085 55.917 249.843 66.154 196.598C68.81 178.368 77.004 156.266 84.689 139.557Z" fill="#130C1C"/>
<path d="M249.753 267.222C249.494 270.843 248.587 275.822 247.904 279.492C240.288 320.426 222.779 368.441 187.33 393.217C174.369 402.276 158.987 406.635 143.351 403.708C122.474 399.799 105.396 383.486 93.91 366.348C62.903 320.085 55.917 249.843 66.154 196.598C69.599 197.453 73.999 198.418 77.244 199.603C68.502 251.144 72.048 306.716 102.245 351.159C121.132 378.957 153.05 393.72 182.68 371.675C213.217 348.955 228.375 308.562 233.886 271.933C234.243 269.567 234.546 267.195 234.795 264.816C239.77 265.682 244.757 266.484 249.753 267.222Z" fill="#0D10F5"/>
<path d="M84.689 139.557C97.896 114.077 113.941 89.2399 142.588 79.7369C156.22 75.2149 171.999 77.3139 184.355 84.2569C222.463 105.671 238.836 152.11 247.355 192.076C242.179 192.018 236.994 191.584 231.723 191.516C230.712 187.683 229.868 183.739 228.852 179.9C221.613 152.55 206.721 121.805 181.522 107.084C170.275 100.514 157.695 98.1339 145.1 101.657C120.588 108.513 106.643 128.013 94.599 148.626C92.237 147.338 86.791 141.653 84.689 139.557Z" fill="#0D10F5"/>
<path d="M231.723 191.516C236.994 191.584 242.179 192.018 247.355 192.076C251.389 222.955 252.036 235.559 249.753 267.222C244.757 266.484 239.77 265.682 234.795 264.816C238.228 241.646 235.952 214.437 231.723 191.516Z" fill="#1E48FB"/>
<path d="M84.689 139.557C86.791 141.653 92.237 147.338 94.599 148.626C85.632 166.622 81.656 180.241 77.244 199.603C73.999 198.418 69.599 197.453 66.154 196.598C68.81 178.368 77.004 156.266 84.689 139.557Z" fill="#1E48FB"/>
<path d="M95.997 151.186C103.463 138.426 111.707 124.18 123.635 115.168C179.192 73.197 220.58 143.446 229.296 190.89C233.212 209.658 234.465 227.164 234.038 246.319C233.938 250.805 233.737 260.314 232.764 264.478C228.102 302.817 212.575 348.54 179.626 371.087C138.922 398.941 102.367 358.071 88.878 321.836C74.5 283.215 70.642 240.877 79.258 200.698C84.225 180.998 86.268 170.165 95.997 151.186Z" fill="#130C1C"/>
<path d="M79.258 200.698C81.525 201.781 86.856 204.173 88.748 205.385C80.943 248.53 83.425 294.831 108.094 332.554C123.526 356.151 150.208 368.121 174.937 349.927C199.791 331.641 215.957 291.597 218.352 261.024L232.764 264.478C228.102 302.817 212.575 348.54 179.626 371.087C138.922 398.941 102.367 358.071 88.878 321.836C74.5 283.215 70.642 240.877 79.258 200.698Z" fill="#0D10F5"/>
<path d="M95.997 151.186C103.463 138.426 111.707 124.18 123.635 115.168C179.192 73.197 220.58 143.446 229.296 190.89C224.996 190.768 218.54 189.986 214.097 189.574C207.761 167.209 196.592 142.812 176.249 130.037C147.424 111.934 121.833 133.34 106.756 157.615C104.154 155.822 98.661 152.554 95.997 151.186Z" fill="#0D10F5"/>
<path d="M214.097 189.574C218.54 189.986 224.996 190.768 229.296 190.89C233.212 209.658 234.465 227.164 234.038 246.319C233.938 250.805 233.737 260.314 232.764 264.478L218.352 261.024C221.04 234.683 220.195 215.369 214.097 189.574Z" fill="#1E48FB"/>
<path d="M79.258 200.698C84.225 180.998 86.268 170.165 95.997 151.186C98.661 152.554 104.154 155.822 106.756 157.615C96.165 175.756 93.938 186.226 88.748 205.385C86.856 204.173 81.525 201.781 79.258 200.698Z" fill="#1E48FB"/>
<path d="M108.135 160.141C146.702 96.0799 195.88 129.975 211.646 189.144C217.017 209.69 219.985 239.46 216.337 260.54C216.167 262.676 215.907 264.805 215.56 266.919C210.932 296.303 198.301 329.76 173.874 348.181C150.14 366.079 124.84 353.762 109.815 331.152C93.066 305.949 86.734 273.469 86.665 243.468C86.637 231.568 88.522 218.629 90.658 206.959C90.889 206.102 91.177 205.105 91.369 204.245L91.938 201.743C94.662 188.349 101.22 171.821 108.135 160.141Z" fill="#1E48FB"/>
<path d="M108.135 160.141C146.702 96.0799 195.88 129.975 211.646 189.144C217.017 209.69 219.985 239.46 216.337 260.54C211.288 258.567 206.423 256.15 201.801 253.318L201.717 252.451C201.467 253.409 201.43 253.312 200.62 253.931C158.248 227.499 145 196.754 133.839 150.859L133.374 149.083C126.509 153.676 122.826 158.171 117.59 164.623C114.506 163.246 111.238 161.609 108.135 160.141Z" fill="#231717"/>
<path d="M108.135 160.141C146.702 96.0799 195.88 129.975 211.646 189.144C206.299 187.133 198.588 184.123 193.188 183.141C190.801 177.803 188.557 173.456 185.576 168.442C174.67 150.105 154.271 135.706 133.374 149.083C126.509 153.676 122.826 158.171 117.59 164.623C114.506 163.246 111.238 161.609 108.135 160.141Z" fill="#0D10F5"/>
<path d="M193.188 183.141C198.588 184.123 206.299 187.133 211.646 189.144C217.017 209.69 219.985 239.46 216.337 260.54C211.288 258.567 206.423 256.15 201.801 253.318L201.717 252.451C203.372 227.928 202.13 206.71 193.188 183.141Z" fill="#1E48FB"/>
<path d="M90.658 206.959C92.921 207.956 95.283 208.788 97.704 209.301C93.569 230.805 91.295 265.16 99.106 285.784C99.975 284.567 100.02 283.554 100.296 282.08C103.15 297.622 111.494 313.19 121.346 325.38C140.257 309.884 161.932 296.509 184.799 288.011C186.497 287.38 194.05 285.295 194.807 284.524C196.1 277.42 197.356 269.903 198.742 262.869C199.429 259.946 199.474 256.45 200.62 253.931C201.43 253.312 201.467 253.409 201.717 252.451L201.801 253.318C206.423 256.15 211.288 258.567 216.337 260.54C216.167 262.676 215.907 264.805 215.56 266.919C210.932 296.303 198.301 329.76 173.874 348.181C150.14 366.079 124.84 353.762 109.815 331.152C93.066 305.949 86.734 273.469 86.665 243.468C86.637 231.568 88.522 218.629 90.658 206.959Z" fill="#0D10F5"/>
<path d="M100.296 282.08C103.15 297.622 111.494 313.19 121.346 325.38C140.257 309.884 161.932 296.509 184.799 288.011C186.497 287.38 194.05 285.295 194.807 284.524C195.33 284.422 196.13 284.243 196.672 284.199C192.124 296.951 188.592 307.32 180.472 318.484C169.68 333.32 154.104 344.163 135.253 337.261C120.892 332.003 111.451 317.462 105.369 304.132C103.768 300.576 99.244 289.482 99.106 285.784C99.975 284.567 100.02 283.554 100.296 282.08Z" fill="url(#paint1_linear_15_293)"/>
<path d="M201.717 252.451L201.801 253.318C200.631 264.777 199.09 273.043 196.672 284.199C196.13 284.243 195.33 284.422 194.807 284.524C196.1 277.42 197.356 269.903 198.742 262.869C199.429 259.946 199.474 256.45 200.62 253.931C201.43 253.312 201.467 253.409 201.717 252.451Z" fill="#130C1C"/>
<path d="M97.2391 225.45C103.94 228.37 112.947 237.002 120.167 240.858C138.302 250.543 157.342 257.893 177.76 260.974C184.445 262.037 192.848 261.876 198.742 262.869C197.356 269.903 196.1 277.42 194.807 284.524C194.05 285.295 186.497 287.38 184.799 288.011C161.932 296.509 140.257 309.884 121.346 325.38C111.494 313.19 103.15 297.622 100.296 282.08C95.485 266.746 95.0111 241.341 97.2391 225.45Z" fill="#0D10F5"/>
<path d="M138.759 263.508C139.558 263.543 139.744 263.604 140.504 263.824L140.718 264.563C140.375 265.039 140.081 265.294 139.515 265.484C130.256 268.593 121.101 272.997 115.907 281.702C114.064 284.792 113.348 286.981 112.221 290.341C106.844 292.288 114.692 270.561 138.759 263.508Z" fill="#130C1C"/>
<path d="M108.135 160.141C111.238 161.609 114.506 163.246 117.59 164.623C105.819 180.54 103.167 190.992 97.704 209.301C95.283 208.788 92.921 207.956 90.658 206.959C90.889 206.102 91.177 205.105 91.369 204.245L91.938 201.743C94.662 188.349 101.22 171.821 108.135 160.141Z" fill="#1E48FB"/>
<path d="M117.59 164.623C122.826 158.171 126.509 153.676 133.374 149.083L133.839 150.859C110.916 170.875 101.204 195.513 97.239 225.45C95.011 241.341 95.485 266.746 100.296 282.08C100.02 283.554 99.975 284.567 99.106 285.784C91.295 265.16 93.569 230.805 97.704 209.301C103.167 190.992 105.819 180.54 117.59 164.623Z" fill="#130C1C"/>
<path d="M132.259 173.125C135.3 174.192 136.929 179.223 137.995 182.114C144.849 200.708 154.995 219.064 168.497 233.666C170.725 236.075 176.213 241.528 176.635 244.639C172.692 243.999 169.357 241.44 166.289 238.994C146.25 223.017 132.084 199.202 132.259 173.125Z" fill="#B8CCF3"/>
<path d="M284.252 192.838L284.997 192.167C290.782 192.501 297.454 194.548 303.144 195.796C338.453 203.539 375.132 209.21 411.317 205.311C419.016 204.482 427.43 202.85 435.006 201.255C435.98 210.606 436.485 219.936 437.449 229.144L437.762 227.647C438.394 239.557 439.37 254.761 437.585 266.483C436.534 273.387 434.527 299.155 430.802 303.124C430.058 305.25 429.744 306.428 429.267 308.632C425.54 322.441 421.233 336.087 416.356 349.534C415.247 363.548 405.012 378.688 407.237 394.259L406.593 397.093C405.722 401.173 405.761 408.345 406.243 412.506C406.161 414.229 405.902 415.543 406.619 417.075L406.427 418.537C406.384 420.458 406.149 421.821 406.968 423.534L407.882 424.179C406.863 425.419 406.369 425.658 406.721 427.687C407.433 431.788 408.395 436.925 409.658 440.848L411.603 445.338C411.985 449.841 419.734 461.209 423.582 463.345C427.026 467.274 427.538 467.86 432.92 468.716C432.239 469.042 431.139 469.465 430.669 469.956C433.565 472.501 434.273 472.883 438.023 473.655C436.026 474.081 435.679 473.894 433.607 473.485L432.555 474.194C436.441 477.601 439.501 479.613 444.032 482.11C447.704 482.237 466.118 489.974 471.176 491.687C474.061 492.738 479.34 494.018 482.386 494.629C483.888 494.964 485.118 495.264 486.598 495.688C487.438 495.763 488.085 495.926 488.904 496.103C488.695 497.36 488.717 497.255 487.608 497.851C492.783 498.999 497.425 499.524 502.662 500.176C502.886 500.233 503.111 500.291 503.335 500.348C532.182 503.516 557.58 508.146 582.915 523.66C608.425 541.11 623.919 557.082 636.095 586.365C584.522 589.866 536.542 612.039 495.617 642.805C489.824 647.16 473.961 659.166 470.282 664.725C471.439 666.027 467.476 668.721 466.458 669.691C466.509 668.737 466.642 666.032 466.978 665.17C466.846 661.221 465.233 654.528 463.988 650.793C454.332 621.831 430.686 600.357 404.184 586.743C386.385 578.094 374.311 575.612 356.053 570.834C322.672 562.097 289.51 535.874 272.506 505.934C250.808 467.731 251.99 427.389 259.94 385.638C261.924 375.215 263.714 364.461 266.506 354.212C267.068 351.676 268.15 348.207 269.059 345.724C278.332 320.403 282.356 295.826 285.733 269.119C288.008 240.42 287.558 221.382 284.252 192.838Z" fill="#0D10F5"/>
<path d="M404.184 586.743C409.496 583.387 425.455 577.952 432.095 575.572C447.22 570.152 463.085 564.842 478.496 560.306C507.308 551.826 559.257 541.041 582.915 523.66C608.425 541.11 623.919 557.082 636.095 586.365C584.522 589.866 536.542 612.039 495.617 642.805C489.824 647.16 473.961 659.166 470.282 664.725C471.439 666.027 467.476 668.721 466.458 669.691C466.509 668.737 466.642 666.032 466.978 665.17C466.846 661.221 465.233 654.528 463.988 650.793C454.332 621.831 430.686 600.357 404.184 586.743Z" fill="#1E48FB"/>
<path d="M284.252 192.838L284.997 192.167C290.782 192.501 297.454 194.548 303.144 195.796C338.453 203.539 375.132 209.21 411.317 205.311C419.016 204.482 427.43 202.85 435.006 201.255C435.98 210.606 436.485 219.936 437.449 229.144L437.762 227.647C438.394 239.557 439.37 254.761 437.585 266.483C436.534 273.387 434.527 299.155 430.802 303.124C430.058 305.25 429.744 306.428 429.267 308.632C426.539 307.487 418.651 302.503 415.831 300.804C393.914 287.597 374.238 273.268 355.576 255.725C351.37 251.771 337.919 236.638 334.598 234.675C332.855 234.908 332.893 234.78 331.601 235.925C330.345 239.63 334.523 244.011 336.861 247.005C345.702 258.465 356.115 268.621 367.792 277.172C372.33 280.495 387.113 289.125 386.977 293.547C386.462 310.298 354.207 285.882 349.87 283.354C329.737 271.619 308.282 269.985 285.733 269.119C288.008 240.42 287.558 221.382 284.252 192.838Z" fill="#1E48FB"/>
<path d="M437.449 229.144L437.762 227.647C438.394 239.557 439.37 254.761 437.585 266.483C436.534 273.387 434.527 299.155 430.802 303.124C432.322 294.465 434.015 286.166 435.189 277.42C437.377 261.112 437.307 245.519 437.449 229.144Z" fill="#130C1C"/>
<path d="M416.356 349.534C415.247 363.548 405.012 378.688 407.237 394.259L406.593 397.093C405.722 401.173 405.761 408.345 406.243 412.506C406.161 414.229 405.902 415.543 406.619 417.075L406.427 418.537C406.384 420.458 406.149 421.821 406.968 423.534L407.882 424.179C406.863 425.419 406.369 425.658 406.721 427.687C407.433 431.788 408.395 436.925 409.658 440.848L411.603 445.338C411.985 449.841 419.734 461.209 423.582 463.345C427.026 467.274 427.538 467.86 432.92 468.716C432.239 469.042 431.139 469.465 430.669 469.956C433.565 472.501 434.273 472.883 438.023 473.655C436.026 474.081 435.679 473.894 433.607 473.485L432.555 474.194C422.953 466.049 415.788 459.538 410.722 447.653C397.913 417.604 405.124 378.942 416.356 349.534Z" fill="#0E0E10"/>
<path d="M444.032 482.11C447.704 482.237 466.118 489.974 471.176 491.687L469.827 493.26C460.425 489.949 454.712 488.164 445.714 483.075L444.032 482.11Z" fill="#231717"/>
<path d="M471.176 491.687C474.061 492.738 479.34 494.018 482.386 494.629C482.023 495.359 482.007 495.733 481.837 496.552C477.707 495.661 473.848 494.266 469.827 493.26L471.176 491.687Z" fill="#0E0E10"/>
<path d="M482.386 494.629C483.888 494.964 485.118 495.264 486.598 495.688C487.438 495.763 488.085 495.926 488.904 496.103C488.695 497.36 488.717 497.255 487.608 497.851C485.663 497.506 484.24 497.173 482.334 496.571L481.837 496.552C482.007 495.733 482.023 495.359 482.386 494.629Z" fill="#0E0E10"/>
<path d="M482.386 494.629C483.888 494.964 485.118 495.264 486.598 495.688C484.91 496.181 484.06 496.282 482.334 496.571L481.837 496.552C482.007 495.733 482.023 495.359 482.386 494.629Z" fill="#231717"/>
<path d="M432.72 513.589C433.834 513.35 433.752 513.36 434.821 513.769C434.245 515.67 429.356 516.598 427.486 517.09C402.308 523.715 376.374 521.398 350.89 525.44C340.794 527.041 334.79 529.728 326.277 535.036C325.061 535.342 325.603 535.436 324.632 534.918L324.745 533.927C336.085 519.804 385.797 521.141 403.116 518.922C414.384 517.478 421.362 516.276 432.72 513.589Z" fill="#130C1C"/>
<path d="M288.017 454.184C298.16 451.645 327.15 458.433 336.474 461.985C344.268 464.953 370.778 475.743 373.906 482.645C371.909 482.387 358.537 474.219 355.333 472.541C338.216 463.572 318.9 457.493 299.533 456.508C295.931 456.325 290.113 456.548 288.017 454.184Z" fill="#130C1C"/>
<path d="M394.995 299.511C403.833 299.252 412.637 307.621 403.124 313.374C394.609 314.286 386.581 306.478 394.995 299.511Z" fill="#1E48FB"/>
<path d="M348.685 484.916C352.363 484.966 358.431 490.36 362.469 491.988C375.944 497.421 389.593 501.211 404.245 500.934C408.138 500.861 415.01 500.318 418.63 500.865L419.413 502.047C404.983 507.148 356.651 498.135 348.685 484.916Z" fill="#130C1C"/>
<path d="M469.786 506.552C472.254 506.615 471.577 508.742 468.01 509.124C464.581 509.492 458.654 511.491 455.093 512.506C454.548 512.441 454.132 512.343 453.607 512.199L453.347 511.386C455.083 509.767 456.962 509.681 459.257 509.083L461.256 508.629C464.175 507.987 466.911 507.212 469.786 506.552Z" fill="#130C1C"/>
<path d="M38.395 241.514C38.296 240.789 38.162 239.937 38.149 239.18C37.236 185.646 51.945 128.533 79.852 82.683C86.006 72.572 109.553 40.5399 120.704 39.7629C94.166 60.0359 77.813 84.5729 64.517 115.027C66.142 117.578 69.739 123.556 71.529 125.617C60.67 147.614 55.037 173.581 50.297 197.403C47.493 197.54 44.692 197.703 41.891 197.893C40.182 210.659 38.596 228.674 38.395 241.514Z" fill="#1E48FB"/>
<path d="M38.395 241.514C38.296 240.789 38.162 239.937 38.149 239.18C37.236 185.646 51.945 128.533 79.852 82.683C86.006 72.572 109.553 40.5399 120.704 39.7629C94.166 60.0359 77.813 84.5729 64.517 115.027C54.128 141.364 45.573 169.774 41.891 197.893C40.182 210.659 38.596 228.674 38.395 241.514Z" fill="#0E0E10"/>
<path d="M240.075 10.7089C253.348 10.2229 257.883 15.257 270.131 16.608C276.11 17.267 285.724 9.81395 292.901 11.6719C300.125 13.5429 303.547 19.6589 311.003 20.0209C322.593 20.3089 330.812 12.3769 342.802 15.6979C352.457 18.3719 355.483 28.5389 363.402 32.6309C368.051 35.0329 376.243 33.5639 381.883 35.5399C398.997 41.5349 394.743 55.443 404.241 66.292C408.974 71.699 417.235 74.1669 420.965 79.3639C421.432 80.0159 421.257 80.0099 420.955 80.8839C419.229 81.1049 419.613 80.927 417.73 79.975C405.417 72.514 398.154 68.0449 394.082 53.6589C393.004 49.8479 391.349 46.509 388.704 43.645C380.087 34.315 370.885 39.9979 361.615 35.7349C357.199 33.7039 352.169 25.873 347.67 22.317C334.441 11.858 323.455 25.504 309.211 23.552C301.337 22.473 297.518 14.4679 290.065 14.6979C283.943 14.8869 277.553 19.465 271.142 20.009C261.381 20.837 254.61 14.339 245.113 13.524C241.316 13.198 237.309 15.0049 234.745 12.9649L234.986 11.925C237.055 10.538 237.395 10.9219 240.075 10.7089Z" fill="#5173E8"/>
<path d="M429.243 113.731C435.437 114.241 448.169 149.405 450.293 156.107C466.1 205.995 469.079 263.401 455.535 314.12C454.087 319.543 451.458 327.487 449.009 332.385L447.786 332.373L447.097 331.492C446.774 327.359 451.442 317.493 452.627 312.972C461.21 280.234 462.65 245.19 458.887 211.518C456.346 186.766 450.262 162.507 440.82 139.486C437.338 131.025 433.5 124.22 429.355 116.091C428.964 115.323 429.085 114.538 429.243 113.731Z" fill="#5173E8"/>
<path d="M42.531 103.222C42.962 103.368 43.799 103.812 44.24 104.028L44.549 105.022C43.712 108.741 42.642 112.474 41.932 116.24C40.423 124.236 39.86 134.077 35.12 141.032C33.151 143.922 27.881 147.434 25.556 150.359C17.88 160.017 26.915 166.794 26.66 175.579C26.464 182.343 17.258 189.182 16.147 196.747C14.931 205.035 21.206 209.228 21.865 216.454C22.645 224.989 15.449 231.177 15.036 240.134C14.615 249.261 19.665 253.714 20.41 262.551C20.569 264.436 19.941 264.658 18.822 265.793C17.742 263.639 16.404 259.418 15.559 257.045C12.712 249.044 9.61095 241.022 13.2609 232.654C15.3549 227.854 18.66 222.937 18.236 217.478C17.634 209.904 10.9559 204.761 12.6099 196.645C14.4159 187.779 21.229 183.42 23.661 174.736C22.571 170.569 20.455 166.8 19.582 162.249C16.557 146.475 30.1649 146.394 34.9119 134.646C38.2129 126.478 37.695 110.247 42.531 103.222Z" fill="#5173E8"/>
<path d="M169.172 -0.296127L171.822 -0.453125C173.361 0.295875 172.86 -0.270126 173.483 1.20187C172.029 3.56587 164.646 3.51888 161.647 3.96588C154.849 5.03188 148.156 6.68987 141.647 8.92188C108.461 20.5079 75.028 48.0139 59.65 79.8049C59.464 80.1169 58.778 80.7689 58.491 81.0649L57.595 81.0019L56.98 79.9009C57.11 73.9959 67.45 60.5909 71.227 55.8589C95.14 25.9019 130.596 3.77587 169.172 -0.296127Z" fill="#5173E8"/>
<path d="M183.245 26.865L184.997 27.097C186.178 27.287 187.873 27.383 188.925 27.682L188.03 28.849C186.455 28.449 185.912 28.235 184.423 27.626L183.245 26.865Z" fill="#A4A3A3"/>
</g>
<defs>
<linearGradient id="paint0_linear_15_293" x1="123.509" y1="450.673" x2="125.516" y2="446.065" gradientUnits="userSpaceOnUse">
<stop stop-color="#14180B"/>
<stop offset="1" stop-color="#1B1120"/>
</linearGradient>
<linearGradient id="paint1_linear_15_293" x1="173.38" y1="325.415" x2="123.5" y2="265.828" gradientUnits="userSpaceOnUse">
<stop stop-color="#261815"/>
<stop offset="1" stop-color="#1C1522"/>
</linearGradient>
<clipPath id="clip0_15_293">
<rect width="636" height="670" fill="white"/>
</clipPath>
</defs>
</svg>
